<svg width="32" height="32" viewBox="0 0 32 32" fill="none" xmlns="http://www.w3.org/2000/svg">
<style>
    rect {
        fill: #1D2228;
    }
    path {
        fill: #FFFFFE;
    }
    @media (prefers-color-scheme: dark) {
        rect {
            fill: #FFFFFE;
        }
        path {
            fill: #1F2228;
        }
    }
</style>
<rect width="32" height="32" fill="#FFFFFE"/>
<path d="M22.0528 18.4236C22.0528 20.5663 21.5954 22.2393 20.6806 23.4425C19.7658 24.6375 18.4884 25.235 16.8484 25.235C15.398 25.235 14.2401 24.6787 13.3748 23.5661L13.2141 24.9877H10V6H13.5726V12.8114C14.3967 11.8471 15.4804 11.365 16.8237 11.365C18.4555 11.365 19.7329 11.9666 20.6559 13.1698C21.5871 14.3648 22.0528 16.0501 22.0528 18.2258V18.4236ZM18.4802 18.164C18.4802 16.8125 18.2659 15.8276 17.8374 15.2095C17.4088 14.5832 16.7701 14.27 15.9213 14.27C14.784 14.27 14.0011 14.7357 13.5726 15.6669V20.9454C14.0093 21.8849 14.8005 22.3547 15.946 22.3547C17.0998 22.3547 17.858 21.786 18.2206 20.6487C18.3937 20.1048 18.4802 19.2766 18.4802 18.164Z" fill="#1D2228"/>
</svg>
