<svg width="22" height="24" viewBox="0 0 22 24" fill="none" xmlns="http://www.w3.org/2000/svg">
<path d="M13.051 2.751L17.986 5.601C18.802 4.742 20.159 4.708 21.018 5.524C21.166 5.664 21.292 5.825 21.395 6.001C21.984 7.029 21.627 8.34 20.599 8.929C20.425 9.029 20.238 9.104 20.041 9.152V14.851C21.187 15.124 21.895 16.274 21.621 17.42C21.573 17.624 21.494 17.82 21.389 18.001C20.797 19.024 19.488 19.375 18.462 18.783C18.266 18.67 18.087 18.524 17.936 18.354L13.031 21.186C13.403 22.31 12.793 23.521 11.67 23.892C11.453 23.963 11.228 24 11 24C9.81897 24.001 8.86097 23.045 8.85997 21.864C8.85997 21.659 8.88897 21.454 8.94797 21.255L4.01197 18.408C3.19597 19.262 1.84097 19.295 0.985974 18.478C0.131974 17.662 0.0999742 16.307 0.915974 15.452C1.19897 15.155 1.56197 14.946 1.95997 14.849L1.96097 9.15C0.810974 8.874 0.102974 7.717 0.379974 6.566C0.426974 6.368 0.502974 6.177 0.603974 6C1.19597 4.976 2.50597 4.626 3.53097 5.218C3.70797 5.319 3.86997 5.446 4.01097 5.595L8.94897 2.745C8.61297 1.612 9.25997 0.423001 10.39 0.0880008C10.587 0.0290008 10.794 7.84623e-07 11 7.84623e-07C12.181 -0.000999215 13.139 0.954001 13.14 2.134C13.141 2.343 13.11 2.552 13.051 2.751ZM12.536 3.628C12.517 3.649 12.499 3.667 12.478 3.686L18.939 14.876C18.965 14.867 18.995 14.86 19.021 14.853V9.146C17.876 8.863 17.179 7.704 17.463 6.558C17.469 6.534 17.475 6.509 17.482 6.486L12.536 3.628V3.628ZM9.52097 3.687L9.46097 3.627L4.51497 6.479C4.84197 7.614 4.18797 8.797 3.05397 9.124C3.02797 9.132 3.00297 9.138 2.97797 9.145V14.853L3.06197 14.876L9.52297 3.686L9.52097 3.687V3.687ZM11.597 4.194C11.207 4.306 10.794 4.306 10.405 4.194L3.94497 15.383C4.23897 15.666 4.44697 16.028 4.54497 16.424H17.456C17.553 16.026 17.763 15.663 18.059 15.38L11.597 4.194ZM12.583 20.421L17.496 17.583C17.481 17.536 17.469 17.489 17.458 17.441H4.54197L4.52097 17.524L9.45997 20.376C9.84797 19.972 10.394 19.723 11 19.723C11.627 19.723 12.19 19.992 12.583 20.421Z" fill="#E10098"/>
</svg>
