<svg width="400" height="307" viewBox="0 0 400 307" fill="none" xmlns="http://www.w3.org/2000/svg">
<path d="M186.287 42.7953C138.499 1.75328 62.5846 1.77923 25.0605 61.1431C-17.5616 128.572 105.501 116.015 78.9034 191.221C29.9903 329.527 270.058 335.711 277.929 250.254C285.467 168.419 393.126 181.191 366.89 103.31C340.757 25.736 248.386 96.1273 186.287 42.7953Z" fill="#323942"/>
<path d="M170.24 260.19C219.421 260.19 259.29 256.935 259.29 252.92C259.29 248.905 219.421 245.65 170.24 245.65C121.059 245.65 81.19 248.905 81.19 252.92C81.19 256.935 121.059 260.19 170.24 260.19Z" fill="#E6E7E8"/>
<path d="M318.81 184.67H255.49V236.26H318.81V184.67Z" fill="white"/>
<path d="M318.81 236.77H255.49C255.357 236.77 255.23 236.717 255.136 236.624C255.043 236.53 254.99 236.403 254.99 236.27V184.67C254.99 184.537 255.043 184.41 255.136 184.316C255.23 184.223 255.357 184.17 255.49 184.17H318.81C318.942 184.173 319.067 184.226 319.161 184.319C319.254 184.412 319.307 184.538 319.31 184.67V236.27C319.307 236.402 319.254 236.528 319.161 236.621C319.067 236.714 318.942 236.767 318.81 236.77ZM255.99 235.77H318.31V185.17H256L255.99 235.77Z" fill="#D1D3D4"/>
<path d="M318.81 191.8H255.49C255.357 191.8 255.23 191.747 255.136 191.654C255.043 191.56 254.99 191.433 254.99 191.3C254.99 191.167 255.043 191.04 255.136 190.946C255.23 190.853 255.357 190.8 255.49 190.8H318.81C318.943 190.8 319.07 190.853 319.164 190.946C319.257 191.04 319.31 191.167 319.31 191.3C319.307 191.432 319.254 191.558 319.161 191.651C319.067 191.744 318.942 191.797 318.81 191.8Z" fill="#D1D3D4"/>
<path d="M144.34 88.28C142.974 88.3718 141.612 88.0612 140.421 87.3867C139.23 86.7122 138.263 85.7033 137.639 84.4849C137.016 83.2665 136.763 81.892 136.912 80.5314C137.062 79.1709 137.607 77.884 138.48 76.83C134.66 75.07 132.64 70.55 132.92 66.36C133.2 62.17 135.41 58.36 138.17 55.14C140.44 52.51 143.29 50.14 146.7 49.49C147.345 49.4257 147.975 49.2497 148.56 48.97C149.02 48.6461 149.42 48.2432 149.74 47.78C152.23 44.6 155.3 41.68 159.14 40.4C162.98 39.12 167.68 39.85 170.25 42.98C171.535 41.8647 173.128 41.1658 174.818 40.9758C176.509 40.7857 178.217 41.1134 179.717 41.9155C181.218 42.7177 182.439 43.9565 183.22 45.4679C184.001 46.9794 184.304 48.6923 184.09 50.38C186.795 50.7794 189.332 51.9374 191.407 53.7196C193.481 55.5019 195.008 57.8355 195.81 60.45C197.24 65.71 194.81 71.89 189.96 74.38C189.4 74.67 188.73 75.05 188.75 75.67C188.805 76.0442 188.973 76.3929 189.23 76.67C190.79 78.9 190.01 82.13 188.23 84.15C186.45 86.17 183.79 87.24 181.23 88.26C181.799 88.831 182.179 89.5637 182.317 90.3583C182.455 91.1529 182.344 91.9706 182 92.7C181.258 94.1602 180.104 95.3703 178.68 96.18C173.12 99.77 166.24 98.65 160.01 98.78C154.26 98.9 148.55 95.23 144.74 91.07C144 90.28 143.41 88.84 144.34 88.28Z" fill="white"/>
<path d="M166.9 99.35C165.9 99.35 164.9 99.35 163.98 99.35C162.68 99.35 161.32 99.29 160.04 99.35C154.82 99.44 149.04 96.51 144.38 91.48C144.052 91.1511 143.794 90.7591 143.622 90.3276C143.451 89.8962 143.368 89.4343 143.38 88.97C143.374 88.9336 143.374 88.8965 143.38 88.86C142.034 88.7953 140.73 88.3671 139.608 87.6208C138.485 86.8745 137.586 85.8381 137.005 84.6216C136.425 83.4052 136.185 82.0542 136.311 80.7122C136.436 79.3702 136.923 78.0873 137.72 77C134.27 75.1 132.12 70.81 132.42 66.33C132.67 62.5 134.48 58.63 137.79 54.81C140.67 51.49 143.55 49.59 146.61 49L146.95 48.94C147.431 48.9211 147.9 48.781 148.312 48.5328C148.725 48.2846 149.068 47.9362 149.31 47.52C152.45 43.52 155.6 41.06 158.98 39.93C163.15 38.54 167.72 39.51 170.31 42.28C171.673 41.2276 173.312 40.5928 175.028 40.4523C176.745 40.3119 178.465 40.6718 179.981 41.4885C181.497 42.3053 182.744 43.5438 183.571 45.0544C184.398 46.565 184.769 48.2828 184.64 50C187.342 50.4883 189.858 51.7088 191.914 53.5285C193.97 55.3483 195.487 57.6974 196.3 60.32C197.82 65.91 195.13 72.32 190.19 74.83C189.69 75.08 189.24 75.36 189.25 75.66C189.3 75.8675 189.399 76.0597 189.54 76.22L189.63 76.35C191.41 78.87 190.4 82.4 188.55 84.44C186.72 86.2361 184.513 87.6025 182.09 88.44C182.528 89.0952 182.792 89.8508 182.859 90.636C182.925 91.4212 182.791 92.2105 182.47 92.93C181.705 94.4717 180.496 95.7496 179 96.6C175.29 99 171.09 99.35 166.9 99.35ZM161.15 98.27C162.1 98.27 163.06 98.27 164 98.27C169 98.37 174.15 98.48 178.42 95.72C179.766 94.9704 180.856 93.8349 181.55 92.46C181.86 91.823 181.964 91.1051 181.848 90.4062C181.731 89.7072 181.4 89.062 180.9 88.56C180.835 88.5044 180.785 88.4328 180.755 88.3523C180.725 88.2717 180.716 88.1848 180.73 88.1C180.744 88.0139 180.78 87.9328 180.834 87.8646C180.888 87.7963 180.959 87.7431 181.04 87.71C183.38 86.77 186.04 85.71 187.81 83.71C189.4 81.96 190.29 78.96 188.81 76.86L188.72 76.75C188.447 76.4357 188.28 76.0442 188.24 75.63C188.24 74.63 189.19 74.15 189.72 73.88C194.26 71.54 196.72 65.68 195.32 60.52C194.529 58.0122 193.048 55.778 191.045 54.0731C189.043 52.3682 186.602 51.2616 184 50.88C183.871 50.8602 183.754 50.7905 183.676 50.6858C183.597 50.5811 183.563 50.4497 183.58 50.32C183.776 48.7358 183.49 47.1293 182.757 45.711C182.025 44.2927 180.881 43.1288 179.475 42.372C178.07 41.6152 176.468 41.3008 174.881 41.4699C173.294 41.6391 171.794 42.284 170.58 43.32C170.53 43.3642 170.471 43.3976 170.407 43.4183C170.344 43.4389 170.277 43.4463 170.21 43.44C170.144 43.4351 170.08 43.4165 170.021 43.3856C169.963 43.3546 169.911 43.3118 169.87 43.26C167.62 40.52 163.27 39.52 159.31 40.85C156.12 41.91 153.12 44.27 150.14 48.06C149.787 48.573 149.343 49.017 148.83 49.37C148.302 49.651 147.725 49.8276 147.13 49.89L146.81 49.95C143.98 50.5 141.28 52.29 138.55 55.43C135.39 59.08 133.67 62.76 133.43 66.36C133.14 70.68 135.3 74.78 138.7 76.36C138.769 76.3921 138.83 76.4394 138.879 76.4982C138.927 76.5571 138.962 76.626 138.98 76.7C138.996 76.7753 138.994 76.8533 138.975 76.9279C138.956 77.0025 138.92 77.0716 138.87 77.13C138.045 78.1045 137.527 79.3011 137.381 80.5693C137.235 81.8375 137.468 83.1206 138.049 84.257C138.631 85.3934 139.536 86.3323 140.65 86.9557C141.764 87.579 143.037 87.8589 144.31 87.76C144.424 87.7484 144.538 87.777 144.633 87.841C144.728 87.9049 144.798 88.0001 144.83 88.11C144.864 88.2173 144.861 88.333 144.821 88.4382C144.781 88.5435 144.707 88.6322 144.61 88.69C144.548 88.7242 144.496 88.7732 144.457 88.8325C144.419 88.8918 144.396 88.9596 144.39 89.03C144.407 89.6682 144.673 90.2746 145.13 90.72C149.55 95.54 155.13 98.36 160.02 98.26L161.15 98.27Z" fill="#231F20"/>
<path d="M215.76 234.73C218.05 234.73 235.12 236.58 243.11 240.55C251.1 244.52 252.83 244.83 251.21 250.19C249.59 255.55 235.52 256.87 224.81 254.85C217.912 253.432 211.258 251.013 205.06 247.67L215.76 234.73Z" fill="white"/>
<path d="M234.91 256.28C231.493 256.267 228.084 255.932 224.73 255.28C217.785 253.851 211.085 251.419 204.84 248.06C204.782 248.025 204.732 247.979 204.692 247.924C204.653 247.869 204.625 247.806 204.61 247.74C204.598 247.675 204.601 247.608 204.619 247.544C204.636 247.48 204.667 247.421 204.71 247.37L215.41 234.43C215.449 234.377 215.501 234.334 215.56 234.304C215.619 234.275 215.684 234.26 215.75 234.26H215.85C218.64 234.26 235.31 236.16 243.31 240.13L245.11 241.02C251.52 244.16 253.25 245.02 251.65 250.32C250.64 253.68 244.06 256.28 234.91 256.28ZM205.77 247.53C211.792 250.709 218.232 253.022 224.9 254.4C235.65 256.4 249.29 254.98 250.78 250.06C252.15 245.5 251.16 245.01 244.71 241.85L242.91 240.96C235.28 237.17 218.96 235.24 215.97 235.18L205.77 247.53Z" fill="#231F20"/>
<path d="M218.05 234.68C219.56 235.05 220.874 235.977 221.729 237.275C222.584 238.573 222.917 240.147 222.66 241.68C221.91 247.37 209.88 247.61 209.19 247.68C208.5 247.75 218.05 234.68 218.05 234.68Z" fill="white"/>
<path d="M209.19 248C209.101 247.997 209.014 247.972 208.937 247.927C208.86 247.881 208.795 247.817 208.75 247.74C208.6 247.44 208.36 246.98 217.68 234.37C217.733 234.296 217.808 234.241 217.894 234.211C217.979 234.18 218.072 234.177 218.16 234.2C218.21 234.2 223.91 235.63 223.16 241.66C222.4 247.45 211.44 247.96 209.25 248H209.19ZM218.19 235.17C215.26 239.17 210.9 245.17 209.81 247.07C212.55 246.94 221.56 246.17 222.17 241.54C222.405 240.185 222.133 238.791 221.407 237.624C220.68 236.457 219.549 235.597 218.23 235.21L218.19 235.17Z" fill="#231F20"/>
<path d="M128.89 247.71C128.54 247.89 125.27 252.14 111.01 253.84C96.75 255.54 91.46 258.61 88.28 251.12C85.1 243.63 87.28 238.79 94.28 236.65C101.28 234.51 120.67 232.74 124.47 236.32C128.27 239.9 128.89 247.71 128.89 247.71Z" fill="white"/>
<path d="M95.32 256.38C91.79 256.38 89.52 255.2 87.86 251.3C86.2 247.4 85.95 244.05 87.16 241.46C88.28 239.06 90.64 237.29 94.16 236.22C100.74 234.22 120.73 232.16 124.79 235.99C128.68 239.65 129.3 247.35 129.33 247.67C129.335 247.755 129.317 247.839 129.278 247.915C129.239 247.99 129.181 248.054 129.11 248.1L128.97 248.22C124.86 251.96 116.97 253.59 111.05 254.29C107.98 254.66 105.34 255.09 103.05 255.47C100.499 255.964 97.9156 256.268 95.32 256.38ZM113.78 234.72C106.93 234.72 98.63 235.81 94.45 237.09C91.17 238.09 88.99 239.69 87.99 241.85C86.89 244.19 87.13 247.25 88.7 250.94C91.05 256.49 94.52 255.94 102.88 254.57C105.22 254.19 107.88 253.76 110.96 253.39C116.74 252.7 124.45 251.12 128.38 247.54C128.24 246.23 127.38 239.76 124.15 236.68C122.71 235.26 118.6 234.72 113.78 234.72Z" fill="#231F20"/>
<path d="M133.44 244.65C133.44 244.65 126.97 250.05 122.66 249.41C118.35 248.77 112.39 246.41 114.79 241.76C117.19 237.11 132.64 234.31 132.64 234.31L133.44 244.65Z" fill="white"/>
<path d="M123.4 249.92C123.129 249.92 122.858 249.9 122.59 249.86C119.36 249.38 115.46 248 114.21 245.55C113.901 244.922 113.755 244.227 113.785 243.528C113.815 242.829 114.019 242.149 114.38 241.55C116.86 236.73 131.92 233.98 132.56 233.86C132.623 233.849 132.688 233.852 132.749 233.867C132.811 233.883 132.87 233.911 132.92 233.95C132.971 233.99 133.013 234.04 133.044 234.097C133.075 234.153 133.094 234.216 133.1 234.28L133.9 244.61C133.906 244.683 133.894 244.756 133.866 244.824C133.838 244.892 133.795 244.952 133.74 245C133.48 245.21 127.79 249.92 123.4 249.92ZM132.23 234.86C129.58 235.38 117.23 238.01 115.23 241.97C114.935 242.44 114.764 242.978 114.732 243.532C114.701 244.086 114.81 244.639 115.05 245.14C116.15 247.27 119.75 248.51 122.76 248.96C126.43 249.51 131.94 245.29 133 244.45L132.23 234.86Z" fill="#231F20"/>
<path d="M211.16 199.29C211.16 199.29 204.34 225.89 179.45 230.97C154.56 236.05 141.68 234.71 132.86 217.91C124.04 201.11 129.86 190.83 129.86 190.83L208.41 189.27L211.16 199.29Z" fill="#231F20"/>
<path d="M158.92 234.08C146.92 234.08 138.59 229.9 132.41 218.14C123.57 201.29 129.2 191.01 129.41 190.58C129.454 190.504 129.516 190.442 129.592 190.398C129.667 190.354 129.753 190.331 129.84 190.33L208.39 188.77C208.503 188.764 208.615 188.798 208.706 188.865C208.797 188.933 208.862 189.03 208.89 189.14L211.61 199.14C211.63 199.226 211.63 199.314 211.61 199.4C211.54 199.67 204.43 226.4 179.51 231.45C171.64 233.08 164.83 234.08 158.92 234.08ZM130.19 191.32C129.41 192.97 125.47 202.75 133.3 217.68C142.25 234.68 155.3 235.4 179.3 230.48C202.73 225.7 210.04 201.25 210.59 199.29L208 189.78L130.19 191.32Z" fill="#231F20"/>
<path d="M124 199.53C124 199.53 111.13 157.93 112.82 131.86C114.51 105.79 124.2 104.86 137.42 103.39C143.29 102.73 174.56 98.1 186.27 111.88C197.98 125.66 218.59 190.2 218.59 190.2L124 199.53Z" fill="#F89C5A"/>
<path d="M170.45 103.46L168.45 117.38C168.45 117.38 164.07 124.57 155.3 120.93C146.53 117.29 146.36 110.58 146.36 110.58L150.52 84.86C150.52 84.86 159.77 76.56 163.66 60.7C163.66 60.7 171.41 74.22 182.66 77.26C182.66 77.26 181.91 88.49 179.9 95.45C177.9 102.18 170.59 103.38 170.45 103.46Z" fill="white"/>
<path d="M160 122.45C158.299 122.429 156.62 122.069 155.06 121.39C146.06 117.67 145.82 110.88 145.81 110.59L150 84.78C150.02 84.6656 150.076 84.5606 150.16 84.48C150.25 84.4 159.34 76.1 163.16 60.58C163.187 60.4847 163.242 60.3992 163.316 60.3337C163.39 60.2681 163.482 60.2252 163.58 60.21C163.678 60.1962 163.777 60.2116 163.866 60.2543C163.955 60.297 164.03 60.3651 164.08 60.45C164.16 60.59 171.87 73.83 182.76 76.77C182.873 76.8 182.971 76.8683 183.039 76.9633C183.106 77.0582 183.139 77.1738 183.13 77.29C183.13 77.4 182.35 88.66 180.35 95.59C178.7 101.3 173.35 103.26 170.91 103.86L168.91 117.45C168.901 117.516 168.88 117.58 168.85 117.64C167.865 119.089 166.547 120.281 165.008 121.118C163.469 121.954 161.752 122.411 160 122.45ZM151 85.1L146.86 110.66C146.86 110.82 147.16 117 155.5 120.47C163.29 123.7 167.5 117.95 167.98 117.2L169.98 103.39C169.989 103.314 170.017 103.242 170.06 103.179C170.104 103.116 170.162 103.065 170.23 103.03C170.322 102.977 170.424 102.943 170.53 102.93C172.68 102.42 177.86 100.65 179.4 95.31C181.16 89.22 181.96 79.7 182.11 77.63C172.71 74.87 165.89 65.18 163.85 61.97C160.05 76.05 152.08 84 151 85.1Z" fill="#231F20"/>
<path d="M155.91 85.25C155.798 83.949 155.264 82.7202 154.39 81.75C153.54 80.8784 152.545 80.1611 151.45 79.63C150.882 79.2787 150.244 79.0568 149.58 78.98C149.111 78.9846 148.646 79.0761 148.21 79.25C147.145 79.5896 146.237 80.299 145.65 81.25C145.263 82.0568 145.081 82.9462 145.12 83.84C145.08 84.8072 145.168 85.7755 145.38 86.72C145.615 87.6631 146.036 88.5498 146.618 89.3281C147.2 90.1064 147.931 90.7607 148.77 91.2524C149.608 91.7442 150.536 92.0637 151.499 92.1921C152.463 92.3204 153.442 92.2551 154.38 92" fill="white"/>
<path d="M152.48 92.71C150.74 92.7116 149.049 92.132 147.676 91.0631C146.302 89.9942 145.326 88.4973 144.9 86.81C144.668 85.8278 144.574 84.8181 144.62 83.81C144.585 82.836 144.787 81.8681 145.21 80.99C145.847 79.9446 146.836 79.1609 148 78.78C148.498 78.5866 149.026 78.485 149.56 78.48C150.301 78.558 151.015 78.8006 151.65 79.19C152.793 79.7481 153.832 80.4991 154.72 81.41C155.668 82.4636 156.248 83.7976 156.37 85.21C156.378 85.3421 156.335 85.4723 156.249 85.5731C156.163 85.6738 156.042 85.7373 155.91 85.75C155.778 85.7559 155.65 85.7117 155.549 85.6264C155.449 85.541 155.385 85.4208 155.37 85.29C155.272 84.1002 154.791 82.9741 154 82.08C153.187 81.2545 152.236 80.5776 151.19 80.08C150.691 79.7603 150.128 79.5553 149.54 79.48C149.135 79.4834 148.734 79.5649 148.36 79.72C147.415 80.0116 146.602 80.6234 146.06 81.45C145.72 82.1886 145.563 82.9979 145.6 83.81C145.552 84.7339 145.636 85.6599 145.85 86.56C146.07 87.4354 146.462 88.2583 147.003 88.9809C147.544 89.7035 148.223 90.3114 149.001 90.7692C149.778 91.227 150.64 91.5256 151.534 91.6476C152.428 91.7696 153.338 91.7127 154.21 91.48C154.337 91.4463 154.473 91.4641 154.587 91.5296C154.701 91.5952 154.785 91.7031 154.82 91.83C154.837 91.8937 154.84 91.96 154.831 92.0252C154.822 92.0903 154.8 92.1531 154.767 92.2097C154.733 92.2664 154.689 92.3159 154.636 92.3554C154.584 92.3949 154.524 92.4237 154.46 92.44C153.815 92.6182 153.149 92.709 152.48 92.71Z" fill="#231F20"/>
<path d="M168.48 81.28C168.48 81.28 172.41 89.03 171.12 90.14C169.83 91.25 166.73 90.03 166.73 90.03" fill="white"/>
<path d="M169.51 91.11C168.483 91.0783 167.468 90.872 166.51 90.5C166.449 90.4758 166.393 90.4397 166.346 90.3939C166.299 90.3481 166.261 90.2934 166.235 90.2331C166.209 90.1727 166.195 90.1078 166.194 90.0421C166.194 89.9763 166.206 89.9111 166.23 89.85C166.281 89.7283 166.377 89.6311 166.499 89.5789C166.62 89.5267 166.756 89.5235 166.88 89.57C167.61 89.85 169.88 90.5 170.75 89.76C171.28 89.32 169.96 85.38 168 81.5C167.969 81.4418 167.951 81.378 167.945 81.3124C167.939 81.2468 167.947 81.1808 167.968 81.1183C167.988 81.0558 168.021 80.998 168.065 80.9485C168.108 80.8989 168.161 80.8587 168.22 80.83C168.339 80.7733 168.474 80.7646 168.599 80.8055C168.724 80.8465 168.828 80.9341 168.89 81.05C170.12 83.49 172.84 89.29 171.41 90.52C170.862 90.9271 170.192 91.1352 169.51 91.11Z" fill="#231F20"/>
<path d="M163.598 79.5283C163.673 78.6035 163.199 77.8102 162.539 77.7563C161.878 77.7025 161.281 78.4085 161.206 79.3333C161.131 80.2581 161.605 81.0514 162.266 81.1052C162.926 81.1591 163.523 80.4531 163.598 79.5283Z" fill="#231F20"/>
<path d="M175.987 81.2401C176.056 80.3148 175.576 79.5248 174.915 79.4756C174.254 79.4264 173.663 80.1365 173.594 81.0618C173.525 81.9871 174.005 82.7771 174.666 82.8263C175.327 82.8756 175.918 82.1654 175.987 81.2401Z" fill="#231F20"/>
<path d="M167.46 97.31C165.931 97.3369 164.418 96.9938 163.05 96.31C160.66 95.06 159.13 92.67 158.5 89.21C158.489 89.145 158.49 89.0783 158.504 89.0139C158.519 88.9494 158.546 88.8885 158.584 88.8345C158.622 88.7806 158.671 88.7348 158.727 88.6997C158.783 88.6646 158.845 88.6409 158.91 88.63C159.04 88.6093 159.172 88.6392 159.28 88.7137C159.388 88.7882 159.463 88.9015 159.49 89.03C160.05 92.17 161.41 94.32 163.49 95.42C167.69 97.62 173.6 94.96 173.66 94.93C173.781 94.8759 173.918 94.8718 174.042 94.9187C174.165 94.9655 174.265 95.0595 174.32 95.18C174.348 95.2396 174.364 95.3042 174.367 95.37C174.369 95.4358 174.359 95.5015 174.335 95.5631C174.312 95.6248 174.276 95.681 174.231 95.7286C174.185 95.7762 174.131 95.8141 174.07 95.84C171.981 96.7499 169.737 97.249 167.46 97.31Z" fill="#231F20"/>
<path d="M170.45 103.46C170.45 103.46 161.45 104.2 156.81 100.54C156.81 100.54 160.76 113.04 169.06 113L170.45 103.46Z" fill="#231F20"/>
<path d="M169 113.5C160.46 113.5 156.48 101.21 156.31 100.69C156.281 100.587 156.284 100.478 156.32 100.378C156.356 100.277 156.422 100.191 156.51 100.13C156.594 100.064 156.698 100.029 156.805 100.029C156.912 100.029 157.016 100.064 157.1 100.13C161.57 103.62 170.3 102.95 170.39 102.94C170.464 102.935 170.539 102.946 170.609 102.974C170.678 103.001 170.74 103.044 170.791 103.098C170.842 103.153 170.88 103.218 170.902 103.29C170.925 103.361 170.931 103.436 170.92 103.51L169.53 113.06C169.509 113.184 169.443 113.297 169.346 113.378C169.249 113.459 169.126 113.502 169 113.5ZM157.8 101.8C159.07 104.93 162.67 112.18 168.61 112.49L169.84 104C167.92 104.08 162 104.14 157.82 101.8H157.8Z" fill="#231F20"/>
<path d="M127.51 105.71C109.04 103.41 91.7 181.82 101.78 189.27C117.5 200.9 165.48 185.02 165.48 185.02L160.68 164.33C160.68 164.33 126.05 165.98 125.42 158.87C124.79 151.76 144.77 118.43 141.97 113.57C139.17 108.71 127.51 105.71 127.51 105.71Z" fill="#F89C5A"/>
<path d="M192 164.91C191.89 164.913 191.782 164.875 191.699 164.803C191.616 164.73 191.563 164.63 191.55 164.52C189.17 147.8 183.95 119.8 182.26 118.16C182.178 118.074 182.132 117.959 182.132 117.84C182.133 117.721 182.179 117.607 182.262 117.522C182.345 117.436 182.458 117.386 182.577 117.382C182.696 117.378 182.812 117.42 182.9 117.5C185.07 119.61 190.65 151.73 192.45 164.39C192.467 164.511 192.436 164.633 192.363 164.731C192.289 164.828 192.181 164.893 192.06 164.91H192Z" fill="#231F20"/>
<path d="M174.33 204.47L142.45 195.54L201 184.53L232.69 197.81L174.33 204.47Z" fill="white"/>
<path d="M174.33 205C174.287 205.009 174.243 205.009 174.2 205L142.32 196C142.187 196 142.06 195.947 141.966 195.854C141.873 195.76 141.82 195.633 141.82 195.5C141.82 195.367 141.873 195.24 141.966 195.146C142.06 195.053 142.187 195 142.32 195L200.87 184C200.961 183.97 201.059 183.97 201.15 184L232.84 197.28C232.941 197.323 233.026 197.398 233.08 197.494C233.134 197.59 233.155 197.701 233.14 197.81C233.125 197.92 233.074 198.023 232.994 198.101C232.914 198.179 232.811 198.228 232.7 198.24L174.39 205H174.33ZM144.65 195.67L174.37 204L230.73 197.57L200.94 185.09L144.65 195.67Z" fill="#231F20"/>
<path d="M155.52 171.48C162.52 172.25 169.01 172.75 175.52 175.48C179.24 177.042 182.753 179.058 185.98 181.48C187.624 182.647 189.16 183.959 190.57 185.4C191.69 186.62 191.33 187.81 189.45 187.22C187.264 186.535 185.194 185.524 183.31 184.22C187.814 187.895 191.806 192.156 195.18 196.89C195.56 197.43 195.93 198.2 195.48 198.68C195.03 199.16 194.03 198.68 193.48 198.18L183.59 188.8C186.208 191.059 188.435 193.735 190.18 196.72C190.43 197.15 190.67 197.72 190.41 198.11C189.97 198.84 188.85 198.29 188.25 197.68C185.288 194.689 182.594 191.443 180.2 187.98L185.54 195.98C185.489 196.128 185.41 196.264 185.307 196.38C185.203 196.497 185.078 196.592 184.937 196.66C184.797 196.728 184.644 196.767 184.489 196.776C184.333 196.784 184.177 196.762 184.03 196.71C183.442 196.467 182.933 196.066 182.56 195.55L176.09 188.12L179.91 193.38C180.51 194.2 181.11 195.38 180.42 196.15C179.73 196.92 178.17 196.15 177.29 195.37C173.75 192.14 169.863 189.313 165.7 186.94C164.19 186.05 162.9 184.84 161.23 184.33C158.83 183.59 155.83 183.69 153.33 183.41" fill="white"/>
<path d="M195 199.36C194.332 199.285 193.71 198.981 193.24 198.5L190.04 195.5C190.25 195.83 190.46 196.17 190.65 196.5C190.852 196.761 190.981 197.071 191.021 197.398C191.062 197.726 191.013 198.058 190.88 198.36C190.79 198.514 190.666 198.645 190.517 198.742C190.367 198.84 190.197 198.9 190.02 198.92C189.642 198.915 189.269 198.832 188.924 198.675C188.58 198.518 188.272 198.292 188.02 198.01C187.36 197.35 186.72 196.68 186.09 196.01C186.094 196.047 186.094 196.083 186.09 196.12C186.052 196.305 185.975 196.48 185.865 196.633C185.755 196.787 185.613 196.915 185.45 197.01C185.234 197.139 184.994 197.223 184.745 197.255C184.495 197.288 184.242 197.269 184 197.2C183.327 196.936 182.744 196.485 182.32 195.9L181.14 194.55C181.287 194.876 181.339 195.237 181.29 195.591C181.24 195.945 181.091 196.277 180.86 196.55C180.716 196.711 180.541 196.841 180.345 196.932C180.149 197.024 179.936 197.074 179.72 197.08C178.676 196.966 177.709 196.475 177 195.7C173.495 192.487 169.637 189.683 165.5 187.34C164.99 187.04 164.5 186.7 164.02 186.34C163.146 185.659 162.171 185.119 161.13 184.74C159.386 184.299 157.598 184.057 155.8 184.02C154.94 183.97 154.1 183.92 153.31 183.84C153.189 183.825 153.08 183.763 153.005 183.667C152.93 183.572 152.896 183.451 152.91 183.33C152.916 183.271 152.934 183.213 152.963 183.161C152.991 183.109 153.03 183.063 153.076 183.026C153.123 182.988 153.176 182.961 153.234 182.944C153.291 182.928 153.351 182.923 153.41 182.93C154.19 183.01 155.01 183.06 155.85 183.11C157.723 183.146 159.585 183.397 161.4 183.86C162.527 184.272 163.586 184.852 164.54 185.58C165 185.91 165.47 186.23 165.96 186.52C170.154 188.903 174.068 191.747 177.63 195C178.171 195.55 178.87 195.917 179.63 196.05C179.723 196.047 179.814 196.025 179.898 195.985C179.983 195.946 180.058 195.889 180.12 195.82C180.66 195.23 179.92 194.08 179.58 193.61L175.76 188.36C175.724 188.314 175.698 188.262 175.683 188.206C175.667 188.15 175.663 188.091 175.671 188.033C175.678 187.976 175.697 187.92 175.726 187.87C175.755 187.819 175.794 187.775 175.84 187.74C175.924 187.658 176.037 187.611 176.155 187.611C176.273 187.611 176.386 187.658 176.47 187.74L182.95 195.17C183.266 195.613 183.699 195.959 184.2 196.17C184.318 196.203 184.442 196.212 184.564 196.197C184.686 196.181 184.804 196.142 184.91 196.08C184.974 196.047 185.029 195.999 185.07 195.94L179.86 188.11C179.792 188.011 179.767 187.888 179.79 187.77C179.812 187.652 179.881 187.548 179.98 187.48C180.079 187.412 180.202 187.387 180.32 187.41C180.438 187.432 180.542 187.501 180.61 187.6C182.993 191.038 185.67 194.264 188.61 197.24C188.936 197.597 189.38 197.825 189.86 197.88C189.9 197.879 189.938 197.867 189.971 197.846C190.005 197.825 190.032 197.795 190.05 197.76C190.16 197.59 190.05 197.27 189.82 196.83C188.616 194.77 187.176 192.857 185.53 191.13L183.3 189.01C183.228 188.924 183.189 188.815 183.192 188.703C183.195 188.591 183.238 188.484 183.314 188.401C183.39 188.319 183.494 188.268 183.606 188.256C183.717 188.245 183.829 188.275 183.92 188.34C184.71 189.02 185.46 189.73 186.18 190.48L193.82 197.73C194.117 198.067 194.525 198.287 194.97 198.35C195.01 198.352 195.051 198.343 195.087 198.326C195.124 198.308 195.156 198.282 195.18 198.25C195.41 198.01 195.18 197.47 194.85 197.03C191.501 192.331 187.539 188.1 183.07 184.45C182.988 184.372 182.938 184.267 182.928 184.154C182.919 184.042 182.952 183.93 183.019 183.84C183.087 183.75 183.186 183.688 183.297 183.665C183.408 183.643 183.523 183.663 183.62 183.72C185.459 185 187.482 185.991 189.62 186.66C190.32 186.88 190.69 186.79 190.76 186.66C190.83 186.53 190.76 186.09 190.27 185.57C188.882 184.146 187.366 182.854 185.74 181.71C182.545 179.313 179.065 177.321 175.38 175.78C169.51 173.33 163.64 172.7 157.38 172.03L155.43 171.81C155.371 171.804 155.313 171.786 155.261 171.757C155.209 171.729 155.163 171.69 155.126 171.644C155.088 171.597 155.061 171.544 155.044 171.486C155.028 171.429 155.023 171.369 155.03 171.31C155.036 171.251 155.054 171.193 155.083 171.141C155.111 171.089 155.15 171.043 155.196 171.006C155.243 170.968 155.296 170.941 155.354 170.924C155.411 170.908 155.471 170.903 155.53 170.91L157.53 171.12C163.82 171.8 169.75 172.44 175.74 174.94C179.495 176.495 183.042 178.511 186.3 180.94C187.972 182.129 189.531 183.468 190.96 184.94C191.68 185.72 191.9 186.57 191.54 187.14C191.33 187.46 190.77 187.94 189.36 187.5C188.546 187.251 187.748 186.954 186.97 186.61C190.167 189.602 193.058 192.905 195.6 196.47C196.29 197.47 196.38 198.28 195.87 198.84C195.761 198.96 195.628 199.057 195.48 199.124C195.332 199.191 195.172 199.227 195.01 199.23L195 199.36Z" fill="#231F20"/>
<path d="M232.69 197.81L247.28 158.76L187.69 159.94L174.33 204.47L232.69 197.81Z" fill="white"/>
<path d="M174.33 205C174.257 205.001 174.185 204.985 174.119 204.954C174.053 204.923 173.996 204.877 173.95 204.82C173.898 204.757 173.861 204.682 173.844 204.602C173.826 204.522 173.828 204.439 173.85 204.36L187.21 159.83C187.242 159.729 187.305 159.641 187.389 159.577C187.473 159.512 187.574 159.475 187.68 159.47L247.27 158.29C247.352 158.289 247.432 158.307 247.506 158.344C247.579 158.38 247.642 158.434 247.69 158.5C247.734 158.567 247.762 158.644 247.772 158.723C247.782 158.803 247.775 158.884 247.75 158.96L233.16 197.96C233.127 198.048 233.071 198.126 232.997 198.184C232.922 198.243 232.834 198.279 232.74 198.29L174.39 205H174.33ZM188.07 160.46L175.07 203.92L232.37 197.38L246.59 159.3L188.07 160.46Z" fill="#231F20"/>
<path d="M229.51 198.17C229.51 198.17 245.68 211.3 240 223.34C234.32 235.38 131 249.14 131 249.14L126.35 233.4C126.35 233.4 207.4 192 229.51 198.17Z" fill="#231F20"/>
<path d="M131 249.64C130.892 249.638 130.788 249.603 130.701 249.538C130.615 249.473 130.552 249.383 130.52 249.28L125.87 233.54C125.834 233.429 125.84 233.31 125.886 233.203C125.932 233.096 126.015 233.01 126.12 232.96C126.32 232.85 146.65 222.5 169.43 213.02C200.08 200.27 220.33 195.11 229.61 197.69C229.68 197.709 229.745 197.743 229.8 197.79C232.622 200.187 235.128 202.933 237.26 205.96C241.72 212.38 242.8 218.46 240.38 223.56C234.6 235.7 135.29 249.07 131.07 249.63L131 249.64ZM126.94 233.64L131.36 248.56C138.58 247.56 234.11 234.38 239.48 223.11C244.76 211.99 230.48 199.62 229.24 198.61C208.22 193 133 230.64 127 233.66L126.94 233.64Z" fill="#231F20"/>
<path d="M121 192.14C121 192.14 201.23 224.58 221.12 233.14L209.56 251C209.56 251 135.48 249.55 114.24 230.94C93 212.33 94.41 181.35 121 192.14Z" fill="#231F20"/>
<path d="M209.56 251.52C209.38 251.52 190.77 251.13 169.81 248.47C141.61 244.88 122.81 239.12 113.92 231.33C102.8 221.59 95.01 204.49 101.13 194.56C103.13 191.26 108.47 186.51 121.21 191.67C122.01 192 201.67 224.22 221.34 232.67C221.407 232.697 221.467 232.739 221.515 232.793C221.564 232.847 221.6 232.911 221.62 232.98C221.64 233.05 221.645 233.124 221.635 233.196C221.624 233.269 221.599 233.338 221.56 233.4L210 251.29C209.953 251.363 209.888 251.423 209.811 251.463C209.733 251.504 209.647 251.523 209.56 251.52ZM111.15 190.4C107.04 190.4 103.89 191.98 101.97 195.08C97.25 202.75 101.18 218.85 114.57 230.58C134.78 248.29 204.3 250.39 209.29 250.51L220.39 233.36C199.85 224.56 121.62 192.92 120.82 192.6C117.766 191.259 114.484 190.512 111.15 190.4Z" fill="#231F20"/>
<path d="M233 182.22C233.086 182.681 233.285 183.114 233.58 183.48L235.14 185.81C235.083 185.569 234.974 185.344 234.82 185.15C234.667 184.956 234.472 184.798 234.251 184.688C234.03 184.577 233.787 184.516 233.54 184.51C233.292 184.503 233.047 184.551 232.82 184.65C232.377 184.89 232.009 185.247 231.757 185.683C231.504 186.119 231.377 186.616 231.39 187.12C231.435 188.126 231.672 189.114 232.09 190.03C233.2 192.91 235.71 197.12 239.34 194.94C241.8 193.46 242.48 188.24 242.83 185.64C243.52 180.52 241.95 173.94 235.37 174.94C235.56 177.461 236.5 179.868 238.07 181.85C237 180.81 232.67 179.2 233 182.22Z" fill="white"/>
<path d="M237.33 196C236.928 196.003 236.529 195.935 236.15 195.8C233.78 194.99 232.3 191.94 231.63 190.19C231.194 189.219 230.946 188.174 230.9 187.11C230.884 186.519 231.036 185.935 231.339 185.427C231.641 184.919 232.082 184.507 232.61 184.24C232.855 184.128 233.121 184.07 233.39 184.07L233.17 183.74C232.829 183.31 232.602 182.801 232.51 182.26C232.43 181.863 232.486 181.451 232.667 181.088C232.848 180.726 233.145 180.435 233.51 180.26C234.535 179.943 235.643 180.026 236.61 180.49C235.649 178.811 235.075 176.939 234.93 175.01C234.923 174.895 234.96 174.781 235.031 174.691C235.103 174.6 235.206 174.539 235.32 174.52C236.321 174.301 237.36 174.329 238.348 174.6C239.335 174.872 240.242 175.38 240.99 176.08C243.34 178.4 243.73 182.58 243.3 185.73C242.91 188.61 242.21 193.78 239.59 195.36C238.912 195.782 238.129 196.004 237.33 196ZM233.45 185C233.289 184.998 233.129 185.028 232.98 185.09C232.616 185.294 232.315 185.594 232.111 185.957C231.906 186.32 231.805 186.733 231.82 187.15C231.859 188.098 232.084 189.028 232.48 189.89C232.98 191.17 234.36 194.24 236.48 194.96C236.917 195.1 237.381 195.137 237.835 195.07C238.29 195.002 238.722 194.831 239.1 194.57C241.35 193.22 242.03 188.14 242.36 185.7C242.77 182.7 242.44 178.8 240.36 176.7C239.77 176.144 239.06 175.732 238.285 175.494C237.51 175.257 236.69 175.201 235.89 175.33C236.147 177.606 237.038 179.764 238.46 181.56C238.533 181.65 238.569 181.765 238.559 181.88C238.55 181.996 238.497 182.103 238.41 182.18C238.325 182.26 238.212 182.305 238.095 182.305C237.978 182.305 237.865 182.26 237.78 182.18C237.11 181.52 234.9 180.58 233.91 181.06C233.69 181.16 233.41 181.39 233.48 182.17C233.567 182.556 233.738 182.917 233.98 183.23L234.82 184.47C235.04 184.613 235.226 184.802 235.364 185.025C235.503 185.248 235.59 185.499 235.62 185.76C235.631 185.862 235.607 185.965 235.553 186.052C235.498 186.139 235.416 186.205 235.32 186.24C235.224 186.274 235.12 186.275 235.024 186.242C234.927 186.21 234.845 186.145 234.79 186.06L234.17 185.14C233.946 185.032 233.698 184.983 233.45 185Z" fill="#231F20"/>
<path d="M210.47 229.44C210.407 229.45 210.343 229.45 210.28 229.44C208.53 228.76 167.17 212.75 157.85 207.04C157.734 206.968 157.651 206.853 157.619 206.72C157.588 206.587 157.609 206.447 157.68 206.33C157.715 206.272 157.761 206.221 157.816 206.18C157.871 206.14 157.933 206.111 157.999 206.095C158.065 206.08 158.134 206.077 158.201 206.088C158.268 206.099 158.332 206.124 158.39 206.16C167.63 211.82 210.22 228.31 210.65 228.47C210.778 228.519 210.882 228.617 210.938 228.743C210.995 228.869 210.999 229.011 210.95 229.14C210.909 229.232 210.841 229.309 210.755 229.363C210.67 229.416 210.571 229.443 210.47 229.44Z" fill="white"/>
<path d="M162.23 164.14C171.348 164.14 178.74 157.142 178.74 148.51C178.74 139.878 171.348 132.88 162.23 132.88C153.112 132.88 145.72 139.878 145.72 148.51C145.72 157.142 153.112 164.14 162.23 164.14Z" fill="#231F20"/>
<path d="M162.23 164.63C152.85 164.63 145.23 157.4 145.23 148.51C145.23 139.62 152.86 132.38 162.23 132.38C171.6 132.38 179.23 139.62 179.23 148.51C179.23 157.4 171.61 164.63 162.23 164.63ZM162.23 133.38C153.4 133.38 146.23 140.17 146.23 148.51C146.23 156.85 153.41 163.63 162.23 163.63C171.05 163.63 178.23 156.85 178.23 148.51C178.23 140.17 171.06 133.38 162.23 133.38Z" fill="#231F20"/>
<path d="M153.52 153.59L149.52 151.25V148.16L153.52 145.82C154.853 145.053 156.187 144.273 157.52 143.48V147.22C156.81 147.66 156.1 148.09 155.39 148.5C154.68 148.91 153.98 149.33 153.26 149.78L155.39 150.96L157.52 152.15V155.93L153.52 153.59Z" fill="white"/>
<path d="M158.65 156.92L163.36 139L165.82 140.11L161.09 158L158.65 156.92Z" fill="white"/>
<path d="M171 145.82L175 148.16V151.25L171 153.59L167 155.93V152.15L169.13 150.96L171.26 149.78C170.55 149.33 169.84 148.9 169.13 148.5C168.42 148.1 167.72 147.66 167 147.22V143.48L171 145.82Z" fill="white"/>
<path d="M128 192C127.867 192.008 127.737 191.963 127.638 191.875C127.538 191.787 127.478 191.663 127.47 191.53C127.462 191.397 127.507 191.267 127.595 191.168C127.683 191.068 127.807 191.008 127.94 191L151.94 188.09L155.75 168.88L125 166.28C124.926 166.275 124.855 166.254 124.791 166.217C124.727 166.181 124.672 166.131 124.63 166.07C124.585 166.011 124.555 165.942 124.541 165.869C124.527 165.797 124.53 165.721 124.55 165.65L137.19 118.59C137.224 118.457 137.31 118.344 137.428 118.275C137.547 118.205 137.687 118.186 137.82 118.22C137.953 118.254 138.066 118.34 138.135 118.458C138.205 118.577 138.224 118.717 138.19 118.85L125.7 165.34L156.37 167.88C156.44 167.888 156.508 167.909 156.57 167.944C156.632 167.978 156.686 168.024 156.73 168.08C156.772 168.137 156.801 168.202 156.817 168.271C156.832 168.339 156.833 168.411 156.82 168.48L152.82 188.59C152.798 188.693 152.745 188.787 152.668 188.858C152.591 188.93 152.494 188.976 152.39 188.99L128 191.94V192Z" fill="#231F20"/>
<path d="M260.16 56.2H210.3V61.36H260.16V56.2Z" fill="#E6E7E8"/>
<path d="M315.82 56.2H265.96V61.36H315.82V56.2Z" fill="#E6E7E8"/>
<path d="M260.16 65.04H230.89V70.2H260.16V65.04Z" fill="#F89C5A"/>
<path d="M310.25 65.04H265.96V70.2H310.25V65.04Z" fill="#E6E7E8"/>
<path d="M260.16 73.89H223.27V79.05H260.16V73.89Z" fill="#E6E7E8"/>
<path d="M286.76 73.89H265.96V79.05H286.76V73.89Z" fill="#E6E7E8"/>
<path d="M260.17 82.73H238.65V87.89H260.17V82.73Z" fill="#E6E7E8"/>
<path d="M306.7 82.73H265.96V87.89H306.7V82.73Z" fill="#F89C5A"/>
<path d="M260.16 91.58H253.31V96.74H260.16V91.58Z" fill="#F89C5A"/>
<path d="M293.33 91.58H265.96V96.74H293.33V91.58Z" fill="#E6E7E8"/>
<path d="M259.3 127.94H213.48V133.85H259.3V127.94Z" fill="#F89C5A"/>
<path d="M294.8 127.94H266.66V133.85H294.8V127.94Z" fill="#E6E7E8"/>
<path d="M259.29 138.06H222.09V143.97H259.29V138.06Z" fill="#E6E7E8"/>
<path d="M307.63 138.06H266.66V143.97H307.63V138.06Z" fill="#E6E7E8"/>
<path d="M259.29 148.19H240.69V154.1H259.29V148.19Z" fill="#E6E7E8"/>
<path d="M315.38 148.19H266.66V154.1H315.38V148.19Z" fill="#E6E7E8"/>
<path d="M259.29 158.32H252.32V164.23H259.29V158.32Z" fill="#E6E7E8"/>
<path d="M318.44 158.32H266.66V164.23H318.44V158.32Z" fill="#F89C5A"/>
<path d="M301.44 168.44H266.66V174.35H301.44V168.44Z" fill="#E6E7E8"/>
<path d="M284.29 115.12L280.53 113.62V111.62L284.29 110.12L288.05 108.62V111C287.37 111.29 286.7 111.56 286.05 111.82C285.4 112.08 284.71 112.35 284.05 112.64L286.05 113.4L288.05 114.16V116.58L284.29 115.12Z" fill="#E6E7E8"/>
<path d="M289.16 117.25L293.62 105.78L295.96 106.48L291.47 118L289.16 117.25Z" fill="#E6E7E8"/>
<path d="M300.82 110.15C302.07 110.65 303.33 111.15 304.58 111.65V113.65L300.82 115.15L297.06 116.65V114.2L299.06 113.44L301.06 112.68C300.38 112.39 299.71 112.12 299.06 111.86C298.41 111.6 297.72 111.33 297.06 111.04V108.65L300.82 110.15Z" fill="#E6E7E8"/>
<path d="M211.61 43.9C211.609 43.6682 211.66 43.4391 211.76 43.23C211.847 43.017 211.981 42.8258 212.15 42.67C212.316 42.5161 212.51 42.3941 212.72 42.31C212.945 42.2175 213.186 42.17 213.43 42.17C213.66 42.1721 213.888 42.2197 214.1 42.31C214.306 42.3965 214.496 42.5183 214.66 42.67C214.82 42.8317 214.949 43.0216 215.04 43.23C215.132 43.4413 215.18 43.6694 215.18 43.9C215.18 44.1338 215.132 44.3652 215.04 44.58C214.946 44.778 214.817 44.9575 214.66 45.11C214.325 45.4223 213.888 45.6003 213.43 45.61C213.186 45.61 212.945 45.5625 212.72 45.47C212.508 45.3897 212.314 45.2673 212.15 45.11C211.984 44.9633 211.851 44.7825 211.76 44.58C211.66 44.3674 211.608 44.135 211.61 43.9ZM211.61 49.76C211.615 49.531 211.665 49.3053 211.758 49.0959C211.85 48.8864 211.984 48.6975 212.15 48.54C212.313 48.3796 212.507 48.2537 212.72 48.17C212.946 48.081 213.187 48.0368 213.43 48.04C213.66 48.0387 213.887 48.0829 214.1 48.17C214.309 48.2563 214.499 48.3819 214.66 48.54C214.82 48.698 214.949 48.8845 215.04 49.09C215.132 49.3031 215.18 49.5328 215.18 49.765C215.18 49.9972 215.132 50.2269 215.04 50.44C214.949 50.6425 214.82 50.8257 214.66 50.98C214.496 51.1317 214.306 51.2535 214.1 51.34C213.887 51.4271 213.66 51.4713 213.43 51.47C213.187 51.4732 212.946 51.429 212.72 51.34C212.51 51.2559 212.316 51.1339 212.15 50.98C211.981 50.8315 211.848 50.647 211.76 50.44C211.659 50.2278 211.607 49.9951 211.61 49.76Z" fill="#E6E7E8"/>
<path d="M270 212.16C270.395 212.18 270.786 212.068 271.11 211.84C271.39 211.63 271.52 211.19 271.52 210.51V207.41C271.519 206.897 271.586 206.386 271.72 205.89C271.844 205.428 272.055 204.994 272.34 204.61C272.631 204.241 273 203.94 273.42 203.73C273.92 203.497 274.468 203.384 275.02 203.4H277.27V206.62H276.48C276.3 206.602 276.118 206.634 275.954 206.711C275.79 206.789 275.651 206.909 275.55 207.06C275.377 207.364 275.291 207.71 275.3 208.06V211.22C275.311 211.62 275.24 212.019 275.09 212.39C274.97 212.677 274.801 212.941 274.59 213.17C274.406 213.368 274.185 213.527 273.94 213.64C273.744 213.743 273.53 213.808 273.31 213.83C273.527 213.87 273.739 213.937 273.94 214.03C274.184 214.135 274.405 214.288 274.59 214.48C275.071 215.013 275.326 215.712 275.3 216.43V219.6C275.287 219.95 275.374 220.297 275.55 220.6C275.649 220.753 275.789 220.875 275.952 220.954C276.116 221.034 276.299 221.067 276.48 221.05H277.27V224.27H275.02C274.468 224.286 273.92 224.173 273.42 223.94C273 223.73 272.631 223.429 272.34 223.06C272.057 222.675 271.847 222.241 271.72 221.78C271.587 221.281 271.52 220.767 271.52 220.25V217.15C271.555 216.913 271.536 216.672 271.465 216.443C271.394 216.215 271.273 216.005 271.11 215.83C270.786 215.602 270.395 215.49 270 215.51V212.16Z" fill="#E6E7E8"/>
<path d="M304.54 215.49C304.142 215.47 303.748 215.582 303.42 215.81C303.259 215.987 303.139 216.196 303.068 216.424C302.997 216.652 302.977 216.893 303.01 217.13V220.23C303.01 220.747 302.943 221.261 302.81 221.76C302.688 222.223 302.477 222.657 302.19 223.04C301.904 223.414 301.534 223.715 301.11 223.92C300.61 224.153 300.062 224.266 299.51 224.25H297.26V221H298.06C298.24 221.015 298.42 220.981 298.582 220.902C298.744 220.822 298.881 220.701 298.98 220.55C299.156 220.247 299.243 219.9 299.23 219.55V216.38C299.22 215.983 299.291 215.588 299.44 215.22C299.562 214.929 299.735 214.661 299.95 214.43C300.132 214.239 300.349 214.086 300.59 213.98C300.795 213.889 301.01 213.822 301.23 213.78C301.007 213.757 300.79 213.692 300.59 213.59C300.347 213.478 300.13 213.318 299.95 213.12C299.733 212.894 299.56 212.63 299.44 212.34C299.29 211.969 299.219 211.57 299.23 211.17V208C299.239 207.65 299.153 207.304 298.98 207C298.88 206.851 298.742 206.731 298.58 206.654C298.418 206.576 298.239 206.544 298.06 206.56H297.26V203.4H299.51C300.062 203.384 300.61 203.497 301.11 203.73C301.534 203.935 301.904 204.236 302.19 204.61C302.479 204.992 302.69 205.427 302.81 205.89C302.944 206.386 303.011 206.897 303.01 207.41V210.51C302.977 210.748 302.996 210.991 303.067 211.221C303.138 211.45 303.258 211.662 303.42 211.84C303.748 212.068 304.142 212.18 304.54 212.16V215.49Z" fill="#E6E7E8"/>
</svg>
