<svg width="238" height="167" viewBox="0 0 238 167" fill="none" xmlns="http://www.w3.org/2000/svg">
<path d="M202.025 72.3148V165.904H29.2235V72.3148L115.628 20.072L202.025 72.3148Z" fill="#F1F2F2"/>
<path d="M202.025 166.291H29.2003C29.0975 166.291 28.9989 166.25 28.9263 166.178C28.8536 166.105 28.8128 166.007 28.8128 165.904V72.3148C28.8132 72.2472 28.8313 72.1808 28.8653 72.1223C28.8993 72.0639 28.948 72.0153 29.0065 71.9815L115.45 19.7388C115.51 19.701 115.58 19.6809 115.652 19.6809C115.723 19.6809 115.793 19.701 115.853 19.7388L202.25 71.9815C202.307 72.0163 202.354 72.0653 202.387 72.1237C202.419 72.1821 202.436 72.2479 202.436 72.3148V165.904C202.436 165.957 202.425 166.009 202.404 166.058C202.384 166.106 202.353 166.15 202.314 166.186C202.276 166.223 202.23 166.251 202.181 166.269C202.131 166.287 202.078 166.294 202.025 166.291ZM29.611 165.516H201.661V72.5163L115.636 20.506L29.611 72.5163V165.516Z" fill="#231F20"/>
<path d="M153.154 33.3477C153.154 33.3477 157.145 25.8922 156.626 20.9477C156.107 16.0032 151.201 15.1197 151.201 15.1197C151.201 15.1197 139.367 8.95848 136.623 4.68823L136.716 10.9347C134.567 10.1928 132.585 9.03692 130.88 7.53248C130.88 7.53248 129.036 10.7177 131.028 13.5542C131.028 13.5542 127.54 14.2362 125.246 11.9267C125.246 11.9267 126.416 21.3042 134.686 22.5132C140.134 23.2727 147.225 33.712 153.154 33.3477Z" fill="white"/>
<path d="M152.852 33.7431C149.581 33.7431 146.07 30.7981 142.676 27.9538C139.762 25.5126 137.018 23.2031 134.647 22.8621C126.184 21.6221 124.89 12.0121 124.874 11.9346C124.865 11.8548 124.881 11.7741 124.92 11.7038C124.959 11.6335 125.018 11.577 125.091 11.5421C125.163 11.5072 125.244 11.4957 125.324 11.5091C125.403 11.5224 125.476 11.5601 125.533 11.6168C126.189 12.199 126.959 12.6376 127.795 12.9046C128.63 13.1715 129.512 13.2608 130.384 13.1668C128.834 10.3226 130.485 7.39307 130.563 7.26907C130.589 7.21914 130.627 7.17586 130.673 7.14242C130.719 7.10898 130.771 7.08622 130.827 7.07581C130.883 7.0654 130.94 7.06762 130.995 7.08229C131.05 7.09695 131.101 7.1237 131.144 7.16057C132.694 8.48619 134.447 9.55382 136.336 10.3226L136.251 4.62632C136.248 4.54287 136.273 4.4608 136.322 4.39332C136.371 4.32584 136.442 4.27688 136.522 4.25432C136.603 4.22845 136.689 4.22959 136.769 4.25757C136.849 4.28556 136.917 4.33885 136.964 4.40932C139.537 8.40832 150.527 14.2441 151.348 14.6781C151.945 14.8098 156.494 15.9491 157.013 20.8781C157.54 25.9233 153.658 33.2316 153.495 33.5416C153.463 33.5994 153.418 33.6482 153.362 33.6835C153.306 33.7187 153.243 33.7392 153.177 33.7431H152.852ZM125.851 12.8801C126.44 15.2981 128.501 21.1726 134.763 22.0948C137.344 22.4746 140.188 24.8461 143.172 27.3571C146.466 30.1161 149.86 32.9681 152.852 32.9681H152.914C153.526 31.7668 156.696 25.3188 156.238 20.9478C155.758 16.2978 151.333 15.5228 151.147 15.4608L151.038 15.4221C150.581 15.1896 140.684 9.99707 137.042 5.81982L137.119 10.8883C137.119 10.9477 137.106 11.0065 137.081 11.0601C137.055 11.1138 137.018 11.161 136.972 11.1983C136.924 11.2357 136.869 11.2615 136.81 11.2736C136.75 11.2858 136.689 11.2838 136.631 11.2681C134.58 10.5678 132.681 9.48423 131.035 8.07507C130.637 8.89517 130.458 9.8043 130.515 10.7141C130.572 11.624 130.863 12.5036 131.361 13.2676C131.396 13.3223 131.417 13.3844 131.424 13.449C131.431 13.5136 131.422 13.5788 131.4 13.6396C131.375 13.6991 131.336 13.7516 131.286 13.7922C131.236 13.8328 131.176 13.8602 131.113 13.8721C129.296 14.1862 127.428 13.834 125.851 12.8801Z" fill="#231F20"/>
<path d="M147.016 110.53C147.016 110.53 166.089 87.4272 169.243 69.7805C172.397 52.1337 161.377 48.0805 157.533 46.763C153.689 45.4455 133.655 37.1375 123.595 44.3915C113.536 51.6455 103.515 96.8977 103.515 96.8977L147.016 110.53Z" fill="#6EA9EE"/>
<path d="M78.25 133.524L98.7643 107.949C98.7643 107.949 113.04 89.7444 105.065 87.7992C105.065 87.7992 93.998 89.2407 75.9173 95.5492C70.5465 97.4169 61.3163 118.745 55.4883 133.524H78.25Z" fill="#231F20"/>
<path d="M78.25 133.912H55.4495C55.3866 133.912 55.3246 133.896 55.2691 133.867C55.2136 133.837 55.1664 133.794 55.1317 133.741C55.1032 133.686 55.0883 133.625 55.0883 133.563C55.0883 133.501 55.1032 133.44 55.1317 133.385C61.5952 116.986 70.4302 97.0373 75.7932 95.1696C93.6957 88.9696 104.902 87.4196 105.018 87.4196H105.158C105.722 87.5196 106.249 87.7674 106.686 88.1377C107.123 88.508 107.454 88.9876 107.646 89.5276C109.482 94.7976 99.5005 107.616 99.0742 108.128L78.5522 133.703C78.5231 133.76 78.4803 133.809 78.4275 133.845C78.3748 133.882 78.3138 133.905 78.25 133.912ZM56.0618 133.137H78.064L98.4 107.678C98.5007 107.554 108.545 94.6581 106.855 89.7911C106.711 89.384 106.462 89.0225 106.132 88.7434C105.803 88.4643 105.405 88.2776 104.98 88.2023C104.003 88.3341 93.0602 89.9616 75.987 95.9058C72.05 97.2776 64.982 110.491 56.023 133.137H56.0618Z" fill="#231F20"/>
<path d="M112.606 133.524L117.814 120.837C117.814 120.837 130.524 124.643 139.002 121.45C144.97 119.202 146.791 111.491 149.488 105.244C149.488 105.244 113.838 96.797 105.879 93.356C105.879 93.356 105.383 93.356 96.261 102.935C92.1845 107.236 88.9373 120.341 86.5968 133.524H112.606Z" fill="#231F20"/>
<path d="M112.606 133.912H86.5968C86.5392 133.912 86.4822 133.9 86.4299 133.876C86.3776 133.852 86.3314 133.816 86.2945 133.772C86.2598 133.729 86.2343 133.679 86.2196 133.626C86.205 133.573 86.2014 133.517 86.2093 133.462C89.1853 116.722 92.479 106.337 95.982 102.671C105.22 92.9375 105.716 92.9607 105.894 92.9685C105.94 92.9612 105.988 92.9612 106.034 92.9685C113.9 96.425 149.225 104.787 149.55 104.872C149.604 104.886 149.655 104.911 149.7 104.946C149.744 104.98 149.78 105.024 149.806 105.074C149.829 105.125 149.841 105.181 149.841 105.237C149.841 105.293 149.829 105.348 149.806 105.399C149.302 106.562 148.822 107.802 148.357 108.995C146.272 114.366 144.109 119.923 139.095 121.814C131.268 124.759 120.123 121.891 118 121.302L112.924 133.702C112.894 133.762 112.849 133.813 112.793 133.85C112.737 133.886 112.672 133.908 112.606 133.912ZM87.0308 133.137H112.35L117.465 120.69C117.5 120.601 117.567 120.528 117.653 120.487C117.74 120.445 117.838 120.437 117.93 120.465C118.062 120.465 130.617 124.193 138.855 121.085C143.505 119.326 145.636 113.932 147.667 108.685C148.078 107.624 148.504 106.531 148.946 105.485C144.83 104.5 113.675 97.014 105.91 93.759C105.468 94.0922 103.639 95.6965 96.5322 103.175C93.223 106.701 89.9448 117.048 87.054 133.137H87.0308Z" fill="#231F20"/>
<path d="M123.595 44.3915C123.595 44.3915 115.07 53.6915 110.312 58.3415C105.553 62.9915 96.2223 69.0132 96.2223 69.0132C96.2223 69.0132 68.3998 71.253 68.1053 71.6947C67.8108 72.1365 68.1053 81.3745 68.1053 81.3745C68.1053 81.3745 95.2922 86.5902 100.252 85.6912C105.212 84.7922 116.915 76.926 116.915 76.926L123.595 44.3915Z" fill="#6EA9EE"/>
<path d="M135.437 39.7725L134.577 48.5222C134.577 48.5222 136.127 53.5442 142.033 52.6452C147.938 51.7462 149.008 47.7007 149.008 47.7007L152.836 30.6042C152.836 30.6042 149.294 28.0467 145.954 18.0492C145.954 18.0492 133.616 15.7242 133.19 20.4827C133.19 20.4827 130.756 29.0077 130.935 33.5105C131.097 37.8892 135.36 39.7027 135.437 39.7725Z" fill="white"/>
<path d="M140.676 53.1413C139.266 53.1514 137.886 52.7238 136.729 51.9174C135.571 51.111 134.692 49.9654 134.213 48.6385C134.201 48.5901 134.201 48.5397 134.213 48.4913L135.034 39.9663C132.268 38.4628 130.656 36.0913 130.555 33.4873C130.377 28.9613 132.725 20.692 132.826 20.3123C132.864 19.9201 132.987 19.5409 133.186 19.2011C133.386 18.8612 133.657 18.5687 133.98 18.3438C137.08 15.9723 145.675 17.5688 146.032 17.5688C146.101 17.5825 146.165 17.614 146.218 17.6603C146.271 17.7065 146.311 17.7658 146.334 17.8323C149.573 27.543 153.038 30.1703 153.076 30.2323C153.136 30.2775 153.181 30.3387 153.207 30.4086C153.233 30.4785 153.239 30.5544 153.224 30.6275L149.395 47.724C149.341 47.9178 148.155 52.0408 142.102 52.9708C141.632 53.061 141.155 53.118 140.676 53.1413ZM134.972 48.4913C135.189 49.0958 136.817 53.0638 141.947 52.2733C147.504 51.4208 148.597 47.6233 148.605 47.6233L152.379 30.7825C151.565 30.0773 148.504 27.0083 145.629 18.3825C144.265 18.15 137.011 17.034 134.407 19.0103C134.161 19.1803 133.957 19.4027 133.808 19.6614C133.659 19.9201 133.57 20.2086 133.546 20.506C133.546 20.661 131.121 29.031 131.291 33.4795C131.423 36.781 133.98 38.5868 135.492 39.3618C135.558 39.3935 135.62 39.4325 135.678 39.478C135.72 39.5184 135.753 39.5681 135.773 39.6232C135.793 39.6784 135.8 39.7374 135.794 39.7958L134.972 48.4913Z" fill="#231F20"/>
<path d="M148.589 30.8987C148.855 30.1261 149.363 29.4601 150.038 29C151.052 28.2551 152.321 27.9429 153.565 28.132C154.998 28.535 155.727 30.2865 155.417 31.7435C155.225 32.6168 154.814 33.427 154.223 34.098C153.632 34.769 152.88 35.2789 152.038 35.5797C151.458 35.7511 150.85 35.8065 150.249 35.7427C149.648 35.6788 149.065 35.497 148.535 35.2077" fill="white"/>
<path d="M150.744 36.1532C149.907 36.1572 149.083 35.9492 148.349 35.5487C148.304 35.5243 148.264 35.4913 148.232 35.4516C148.2 35.4119 148.177 35.3662 148.162 35.3173C148.148 35.2684 148.143 35.2171 148.149 35.1664C148.154 35.1156 148.169 35.0665 148.194 35.0217C148.218 34.9769 148.251 34.9374 148.291 34.9054C148.331 34.8733 148.376 34.8495 148.425 34.8351C148.474 34.8207 148.525 34.8161 148.576 34.8215C148.627 34.8269 148.676 34.8423 148.721 34.8667C149.703 35.3988 150.857 35.5214 151.929 35.2077C152.703 34.9264 153.392 34.4542 153.934 33.835C154.476 33.2158 154.853 32.4697 155.029 31.666C155.285 30.4492 154.704 28.8527 153.479 28.5117C152.92 28.4233 152.348 28.4462 151.798 28.5792C151.247 28.7122 150.728 28.9526 150.271 29.2867C149.665 29.6948 149.21 30.2913 148.977 30.984C148.944 31.0867 148.871 31.1722 148.775 31.2216C148.679 31.2711 148.568 31.2803 148.465 31.2475C148.362 31.2146 148.277 31.1422 148.227 31.0463C148.178 30.9504 148.169 30.8387 148.202 30.736C148.493 29.8838 149.053 29.1495 149.798 28.6435C150.348 28.2364 150.975 27.9449 151.641 27.7864C152.307 27.6279 152.998 27.6057 153.673 27.7212C155.363 28.1862 156.138 30.2012 155.804 31.7822C155.605 32.7361 155.164 33.6228 154.524 34.3571C153.883 35.0914 153.064 35.6485 152.146 35.975C151.69 36.1033 151.217 36.1634 150.744 36.1532Z" fill="#231F20"/>
<path d="M139.948 26.6129C139.948 26.6129 136.398 30.7282 137.018 31.5962C137.638 32.4642 139.692 32.1852 139.692 32.1852" fill="white"/>
<path d="M138.971 32.6192C138.559 32.6638 138.142 32.6175 137.75 32.4836C137.358 32.3497 136.999 32.1315 136.701 31.8442C136.011 30.8755 138.251 27.9692 139.653 26.4192C139.723 26.3559 139.814 26.3204 139.909 26.3195C140.004 26.3185 140.095 26.3522 140.167 26.4141C140.238 26.4761 140.284 26.562 140.297 26.6557C140.309 26.7494 140.287 26.8445 140.235 26.923C138.53 28.907 137.173 31.015 137.336 31.4412C137.685 31.9217 138.94 31.9527 139.661 31.8597C139.764 31.8464 139.868 31.8744 139.95 31.9376C140.032 32.0008 140.086 32.0941 140.099 32.1968C140.112 32.2996 140.084 32.4035 140.021 32.4856C139.958 32.5677 139.865 32.6214 139.762 32.6347C139.498 32.6445 139.234 32.6393 138.971 32.6192Z" fill="#231F20"/>
<path d="M146.396 26.0918C146.489 25.5172 146.236 24.9982 145.83 24.9325C145.424 24.8669 145.02 25.2795 144.927 25.8542C144.834 26.4288 145.088 26.9479 145.493 27.0135C145.899 27.0791 146.303 26.6665 146.396 26.0918Z" fill="#231F20"/>
<path d="M136.699 26.464C137.109 26.4497 137.426 25.9665 137.406 25.3848C137.386 24.803 137.036 24.343 136.626 24.3572C136.215 24.3715 135.898 24.8547 135.919 25.4364C135.939 26.0182 136.288 26.4782 136.699 26.464Z" fill="#231F20"/>
<path d="M135.437 39.7725C135.437 39.7725 140.754 41.5627 144.141 40.0437C144.141 40.0437 139.878 47.0187 134.841 45.771L135.437 39.7725Z" fill="#231F20"/>
<path d="M136.096 46.3135C135.644 46.3158 135.194 46.2611 134.755 46.1507C134.666 46.1274 134.588 46.0736 134.534 45.9986C134.48 45.9235 134.454 45.832 134.461 45.74L135.05 39.7415C135.055 39.6829 135.073 39.6262 135.102 39.5753C135.132 39.5245 135.172 39.4806 135.22 39.447C135.272 39.4222 135.329 39.4093 135.387 39.4093C135.445 39.4093 135.501 39.4222 135.553 39.447C135.608 39.447 140.777 41.1675 143.986 39.726C144.062 39.6937 144.146 39.686 144.226 39.7041C144.307 39.7221 144.38 39.765 144.435 39.8267C144.483 39.8931 144.51 39.9731 144.51 40.0553C144.51 40.1375 144.483 40.2176 144.435 40.284C144.311 40.5165 140.715 46.3135 136.096 46.3135ZM135.267 45.4687C138.747 46.081 141.854 42.5392 143.156 40.8187C140.374 41.5007 136.995 40.6715 135.77 40.315L135.267 45.4687Z" fill="#231F20"/>
<path d="M135.507 28.1552H135.251L132.392 27.9305C131.573 27.8652 130.813 27.4776 130.28 26.8528C129.747 26.2279 129.483 25.417 129.547 24.598L129.733 22.273C129.743 22.1715 129.793 22.0779 129.871 22.0127C129.949 21.9474 130.05 21.9156 130.152 21.9242L138.413 22.5752C138.516 22.5863 138.61 22.6363 138.677 22.7147C138.71 22.7525 138.736 22.7967 138.752 22.8447C138.768 22.8926 138.774 22.9434 138.77 22.9937L138.584 25.3187C138.519 26.0958 138.165 26.8201 137.59 27.3472C137.016 27.8744 136.263 28.1656 135.484 28.163L135.507 28.1552ZM130.477 22.7302L130.322 24.6367C130.275 25.25 130.473 25.857 130.872 26.3247C131.272 26.7924 131.84 27.0828 132.454 27.1322L135.313 27.357C135.617 27.3851 135.923 27.3515 136.213 27.2582C136.504 27.165 136.772 27.0141 137.003 26.8145C137.466 26.4236 137.758 25.8674 137.817 25.2645L137.964 23.358L130.477 22.7302Z" fill="#231F20"/>
<path d="M145.783 28.9999H145.528L142.668 28.7674C141.849 28.7021 141.09 28.3145 140.556 27.6897C140.023 27.0648 139.76 26.2539 139.824 25.4349L140.01 23.1099C140.014 23.059 140.028 23.0093 140.051 22.9638C140.074 22.9182 140.106 22.8777 140.145 22.8446C140.184 22.8115 140.229 22.7863 140.277 22.7707C140.326 22.755 140.377 22.7492 140.428 22.7534L148.69 23.4122C148.74 23.4161 148.788 23.4298 148.833 23.4526C148.878 23.4754 148.917 23.5068 148.95 23.545C148.982 23.5831 149.007 23.6274 149.022 23.6751C149.037 23.7228 149.043 23.773 149.038 23.8229L148.86 26.1479C148.798 26.9264 148.444 27.6526 147.869 28.1813C147.294 28.7101 146.541 29.0024 145.76 28.9999H145.783ZM145.59 28.2249C146.204 28.2724 146.811 28.0745 147.279 27.6747C147.728 27.2772 148.005 26.7219 148.054 26.1247L148.209 24.2182L140.746 23.5749L140.599 25.4737C140.552 26.0869 140.749 26.6939 141.149 27.1616C141.548 27.6293 142.117 27.9197 142.73 27.9692L145.59 28.2249Z" fill="#231F20"/>
<path d="M140.25 24.9855L138.235 24.8228C138.184 24.8189 138.134 24.8049 138.089 24.7817C138.043 24.7585 138.003 24.7266 137.97 24.6877C137.937 24.6488 137.911 24.6037 137.896 24.5551C137.88 24.5064 137.874 24.4552 137.879 24.4043C137.89 24.3029 137.94 24.2097 138.018 24.1436C138.095 24.0774 138.195 24.0432 138.297 24.0478L140.312 24.2105C140.415 24.2105 140.513 24.2513 140.586 24.324C140.659 24.3967 140.7 24.4953 140.7 24.598C140.7 24.7008 140.659 24.7994 140.586 24.872C140.513 24.9447 140.415 24.9855 140.312 24.9855H140.25Z" fill="#231F20"/>
<path d="M139.002 38.6564C136.576 38.6564 134.662 36.7809 133.895 34.5954C133.874 34.5343 133.869 34.469 133.88 34.4054C133.891 34.3418 133.917 34.2819 133.957 34.2312C133.991 34.1775 134.04 34.1345 134.098 34.1071C134.155 34.0797 134.219 34.069 134.283 34.0762C137.59 34.2493 140.897 33.7211 143.986 32.5262C144.047 32.4993 144.114 32.4887 144.18 32.4955C144.247 32.5023 144.311 32.5262 144.365 32.5649C144.421 32.6033 144.465 32.6558 144.494 32.7171C144.523 32.7785 144.534 32.8463 144.528 32.9137C144.528 33.0919 144.125 37.3467 140.382 38.4162C139.936 38.5627 139.471 38.6437 139.002 38.6564ZM134.825 34.8744C135.639 36.5872 137.522 38.4704 140.149 37.7109C142.567 37.0212 143.373 34.6807 143.629 33.5337C140.8 34.5095 137.817 34.9638 134.825 34.8744Z" fill="#231F20"/>
<path d="M167.46 53.9395C171.971 56.0553 179.295 105.624 171.335 108.965C158.935 114.134 125.37 96.5645 125.37 96.5645L131.973 83.5678C131.973 83.5678 154.774 90.3568 156.355 85.7223C157.936 81.0878 150.108 55.598 152.774 52.8235C155.44 50.049 167.46 53.9395 167.46 53.9395Z" fill="#6EA9EE"/>
<path d="M133.221 88.8144C129.341 88.0235 125.56 86.8098 121.945 85.1952C119.17 83.8699 116.775 82.5989 113.683 81.9324C109.846 81.0993 105.892 80.9524 102.004 81.4984C101.847 81.5109 101.695 81.5614 101.562 81.6457C101.105 82.0332 101.779 82.6997 102.337 82.8779C103.846 83.3215 105.414 83.5358 106.987 83.5134C103.01 83.88 99.0998 84.7793 95.362 86.1872C94.9358 86.3499 94.432 86.6522 94.5018 87.0939C94.5715 87.5357 95.3155 87.6674 95.8425 87.5822L105.065 86.0322C102.708 86.3123 100.413 86.9828 98.276 88.0162C97.9738 88.1634 97.625 88.3804 97.6095 88.7214C97.6095 89.3104 98.431 89.4189 99.0123 89.3027C101.842 88.7315 104.617 87.9147 107.305 86.8614L101.19 89.3802C101.162 89.4845 101.155 89.5934 101.17 89.7004C101.184 89.8074 101.22 89.9104 101.275 90.0035C101.33 90.0965 101.403 90.1778 101.489 90.2424C101.576 90.307 101.674 90.3538 101.779 90.3799C102.207 90.4621 102.648 90.4273 103.058 90.2792L109.591 88.5277L105.398 90.0777C104.74 90.3179 103.941 90.7674 104.05 91.4649C104.174 92.2864 105.313 92.3484 106.135 92.2399C109.384 91.7547 112.677 91.6325 115.954 91.8757C117.155 91.9454 118.356 91.7439 119.503 92.0927C121.154 92.5964 122.82 93.7899 124.355 94.5959C126.757 95.8514 129.152 97.1302 131.547 98.4089" fill="white"/>
<path d="M131.578 98.7035C131.519 98.7056 131.46 98.6922 131.407 98.6647C129.02 97.3886 126.623 96.1176 124.215 94.8517C123.735 94.6037 123.239 94.3092 122.735 94.007C121.697 93.3414 120.587 92.7954 119.426 92.3795C118.693 92.2007 117.938 92.1354 117.186 92.1857C116.775 92.1857 116.372 92.1857 115.962 92.1857C112.711 91.9428 109.443 92.065 106.22 92.55C105.53 92.6959 104.811 92.5944 104.189 92.2632C104.064 92.1725 103.958 92.0569 103.88 91.9235C103.801 91.7901 103.751 91.6419 103.732 91.4882C103.701 91.2738 103.727 91.055 103.808 90.8538C103.888 90.6525 104.019 90.4758 104.189 90.3412L103.182 90.6125C102.708 90.785 102.194 90.8173 101.701 90.7055C101.534 90.6511 101.378 90.5634 101.245 90.4475C101.112 90.3316 101.004 90.19 100.926 90.0312C100.872 89.9092 100.844 89.7772 100.844 89.6437C100.844 89.5102 100.872 89.3782 100.926 89.2562C100.33 89.3957 99.7408 89.5275 99.144 89.6515C98.8815 89.7174 98.6081 89.7279 98.3413 89.6826C98.0745 89.6372 97.82 89.5369 97.594 89.388C97.4967 89.3043 97.4201 89.1991 97.3703 89.0807C97.3206 88.9624 97.299 88.8341 97.3072 88.706C97.3072 88.1015 97.9427 87.807 98.1675 87.6985L98.617 87.4892L95.9432 87.9387C95.4717 88.0426 94.9785 87.971 94.556 87.7372C94.4607 87.6691 94.3801 87.5826 94.3189 87.4827C94.2576 87.3829 94.217 87.2718 94.1995 87.156C94.153 86.846 94.1995 86.2647 95.2845 85.8695C98.0246 84.8175 100.862 84.0387 103.755 83.5445C103.257 83.4715 102.763 83.3732 102.275 83.25C102.004 83.1755 101.756 83.0364 101.551 82.8448C101.345 82.6531 101.19 82.4145 101.097 82.1495C101.072 82.0144 101.083 81.8751 101.129 81.7457C101.175 81.6163 101.255 81.5016 101.361 81.4132C101.54 81.284 101.752 81.2063 101.973 81.1885C105.902 80.6314 109.899 80.7783 113.776 81.6225C116.336 82.2505 118.807 83.1982 121.131 84.4435L122.123 84.9162C125.703 86.4946 129.441 87.6846 133.275 88.4657C133.366 88.4878 133.445 88.545 133.494 88.6247C133.544 88.7045 133.559 88.8005 133.538 88.892C133.528 88.9376 133.509 88.9808 133.482 89.019C133.455 89.0571 133.421 89.0895 133.381 89.114C133.341 89.1386 133.297 89.155 133.251 89.1621C133.205 89.1692 133.158 89.1669 133.112 89.1555C129.211 88.3526 125.408 87.1341 121.766 85.5207L120.774 85.0402C118.498 83.8245 116.08 82.8977 113.574 82.2812C109.779 81.4506 105.866 81.3063 102.019 81.855C101.929 81.8546 101.841 81.8787 101.763 81.9247C101.763 82.1417 102.097 82.4362 102.422 82.537C103.897 82.9676 105.428 83.1765 106.964 83.157C107.048 83.1695 107.125 83.2121 107.181 83.2768C107.237 83.3415 107.268 83.4241 107.268 83.5096C107.268 83.5951 107.237 83.6777 107.181 83.7424C107.125 83.8071 107.048 83.8497 106.964 83.8622C103.024 84.2316 99.1506 85.1256 95.4472 86.5205C95.1372 86.6367 94.7807 86.846 94.8117 87.0397C94.8143 87.063 94.8219 87.0854 94.8339 87.1055C94.846 87.1255 94.8622 87.1427 94.8815 87.156C95.1514 87.2777 95.4544 87.305 95.7418 87.2335L102.879 86.0245C103.573 85.8705 104.274 85.7516 104.98 85.668C105.072 85.6588 105.164 85.685 105.237 85.7411C105.31 85.7972 105.36 85.8791 105.375 85.9702C105.388 86.0626 105.365 86.1565 105.31 86.2319C105.255 86.3072 105.173 86.358 105.08 86.3732L103.011 86.722C101.404 87.0733 99.8433 87.6117 98.3612 88.3262C97.9815 88.5122 97.8963 88.6517 97.8963 88.7292C97.8938 88.7509 97.8967 88.7729 97.9048 88.7932C97.9129 88.8135 97.926 88.8315 97.9427 88.8455C98.2276 88.9905 98.5556 89.0263 98.865 88.9462C101.679 88.3792 104.438 87.5675 107.111 86.5205C107.197 86.487 107.294 86.4885 107.379 86.5246C107.464 86.5608 107.532 86.6288 107.568 86.7142C107.602 86.8018 107.601 86.899 107.565 86.9856C107.529 87.0723 107.46 87.1416 107.374 87.1792L101.438 89.6282C101.428 89.661 101.428 89.6962 101.438 89.729C101.507 89.8709 101.63 89.9795 101.779 90.0312C102.143 90.0975 102.518 90.0627 102.864 89.9305L109.397 88.1712C109.482 88.1575 109.569 88.1749 109.642 88.2201C109.715 88.2654 109.769 88.3354 109.795 88.4175C109.82 88.4995 109.815 88.588 109.781 88.6666C109.746 88.7453 109.684 88.8088 109.607 88.8455L105.421 90.3955C105.057 90.5272 104.22 90.8915 104.298 91.3952C104.305 91.454 104.325 91.5106 104.356 91.5613C104.387 91.612 104.427 91.6557 104.476 91.6897C104.941 91.9161 105.469 91.9736 105.972 91.8525C109.249 91.3573 112.571 91.2325 115.876 91.4805C116.264 91.4805 116.651 91.4805 117.046 91.4805C117.872 91.4249 118.701 91.5008 119.503 91.7052C120.719 92.1301 121.88 92.7 122.96 93.4025C123.456 93.6892 123.944 93.976 124.417 94.224C126.819 95.4846 129.217 96.7556 131.609 98.037C131.651 98.0582 131.688 98.0876 131.718 98.1235C131.748 98.1594 131.771 98.201 131.785 98.2459C131.798 98.2908 131.803 98.3379 131.798 98.3846C131.793 98.4313 131.779 98.4765 131.756 98.5175C131.723 98.6004 131.659 98.6672 131.578 98.7035Z" fill="#231F20"/>
<path d="M125.014 48.9563C123.409 49.894 114.807 69.2381 111.064 78.4683L125.014 48.9563Z" fill="white"/>
<path d="M111.087 78.8247C111.028 78.825 110.971 78.811 110.919 78.7839C110.867 78.7567 110.823 78.7174 110.79 78.6691C110.757 78.6209 110.737 78.5654 110.73 78.5074C110.724 78.4494 110.732 78.3907 110.754 78.3364C114.14 69.9432 123.006 49.7157 124.835 48.6462C124.876 48.6199 124.921 48.6021 124.968 48.5938C125.015 48.5855 125.064 48.5868 125.111 48.5976C125.157 48.6085 125.201 48.6287 125.24 48.6571C125.279 48.6854 125.312 48.7213 125.336 48.7626C125.361 48.8039 125.377 48.8497 125.383 48.8973C125.39 48.9449 125.386 48.9933 125.374 49.0396C125.361 49.086 125.339 49.1292 125.309 49.1668C125.279 49.2044 125.242 49.2356 125.2 49.2584C123.828 50.0334 115.644 68.1142 111.412 78.5999C111.387 78.6659 111.343 78.7228 111.284 78.7629C111.226 78.803 111.157 78.8246 111.087 78.8247Z" fill="#231F20"/>
<path d="M63.68 86.1484L63.2383 90.0854L113.497 111.731L113.652 107.593L63.68 86.1484Z" fill="white"/>
<path d="M113.497 112.119C113.446 112.13 113.393 112.13 113.342 112.119L63.0832 90.473C63.0061 90.4401 62.9417 90.3829 62.8998 90.3103C62.8579 90.2376 62.8407 90.1533 62.8507 90.07L63.2925 86.133C63.2985 86.0729 63.3193 86.0152 63.3531 85.9652C63.387 85.9151 63.4327 85.8742 63.4862 85.8463C63.5399 85.8178 63.5998 85.8029 63.6606 85.8029C63.7214 85.8029 63.7813 85.8178 63.835 85.8463L113.807 107.275C113.879 107.305 113.941 107.357 113.982 107.424C114.024 107.491 114.044 107.569 114.039 107.647L113.884 111.786C113.881 111.849 113.862 111.912 113.83 111.967C113.798 112.022 113.753 112.069 113.699 112.103C113.634 112.127 113.564 112.132 113.497 112.119ZM63.649 89.8452L113.125 111.15L113.257 107.833L64.0055 86.6987L63.649 89.8452Z" fill="#231F20"/>
<path d="M63.68 86.1485C63.68 86.1485 78.3197 79.127 78.6918 79.3285C79.0638 79.53 130.841 100.253 130.841 100.253L113.652 107.593L63.68 86.1485Z" fill="white"/>
<path d="M113.652 107.98C113.601 107.991 113.548 107.991 113.497 107.98L63.525 86.5049C63.4569 86.4752 63.3988 86.4265 63.3575 86.3647C63.3163 86.3028 63.2937 86.2305 63.2925 86.1561C63.2899 86.082 63.3091 86.0088 63.3476 85.9454C63.3862 85.8821 63.4425 85.8314 63.5095 85.7996C78.3352 78.6851 78.6608 78.8634 78.8778 78.9874C79.6528 79.3361 130.477 99.6876 130.989 99.9124C131.061 99.9396 131.123 99.9886 131.166 100.052C131.209 100.116 131.231 100.192 131.229 100.269C131.23 100.345 131.209 100.419 131.167 100.483C131.126 100.546 131.066 100.596 130.996 100.625L113.807 107.965C113.757 107.981 113.704 107.986 113.652 107.98ZM64.6178 86.1252L113.652 107.174L129.826 100.3C121.828 97.0914 81.1873 80.8242 78.6298 79.7547C77.6223 79.9872 69.8723 83.6142 64.6178 86.1252Z" fill="#231F20"/>
<path d="M113.497 111.731L130.198 103.958L130.842 100.253L113.652 107.593L113.497 111.731Z" fill="white"/>
<path d="M113.497 112.119C113.42 112.122 113.344 112.1 113.28 112.057C113.223 112.021 113.178 111.97 113.148 111.91C113.118 111.85 113.105 111.783 113.109 111.716L113.264 107.577C113.269 107.505 113.293 107.435 113.334 107.375C113.375 107.315 113.431 107.267 113.497 107.236L130.694 99.897C130.757 99.8692 130.827 99.8595 130.896 99.8691C130.964 99.8787 131.029 99.9071 131.082 99.9513C131.139 99.9931 131.182 100.051 131.207 100.117C131.231 100.183 131.237 100.254 131.221 100.323L130.586 104.02C130.574 104.081 130.548 104.139 130.51 104.188C130.473 104.238 130.424 104.279 130.369 104.307L113.66 112.057C113.611 112.089 113.555 112.11 113.497 112.119ZM114.032 107.856L113.9 111.15L129.849 103.726L130.33 100.92L114.032 107.856Z" fill="#231F20"/>
<path d="M63.68 86.1485L62.6492 49.7777L115.264 73.9345L113.652 107.593L63.68 86.1485Z" fill="white"/>
<path d="M113.652 107.98C113.601 107.991 113.548 107.991 113.497 107.98L63.525 86.505C63.4563 86.4761 63.3976 86.4276 63.3563 86.3656C63.3149 86.3036 63.2928 86.2308 63.2925 86.1562L62.254 49.7855C62.2528 49.7193 62.2685 49.654 62.2997 49.5957C62.3309 49.5373 62.3766 49.4879 62.4322 49.4522C62.489 49.4203 62.5531 49.4036 62.6183 49.4036C62.6834 49.4036 62.7475 49.4203 62.8043 49.4522L115.45 73.5857C115.52 73.6159 115.58 73.6671 115.62 73.7323C115.66 73.7975 115.679 73.8735 115.675 73.95L114.063 107.608C114.06 107.67 114.043 107.731 114.012 107.785C113.98 107.839 113.937 107.885 113.884 107.918C113.817 107.966 113.734 107.988 113.652 107.98ZM64.052 85.885L113.288 107.019L114.838 74.1747L63.0523 50.39L64.052 85.885Z" fill="#231F20"/>
<path d="M141.668 105.725C141.615 105.736 141.559 105.736 141.506 105.725L130.865 100.819C130.783 100.782 130.717 100.718 130.677 100.637C130.638 100.557 130.627 100.465 130.648 100.378L133.864 86.9235C133.885 86.8265 133.942 86.7413 134.025 86.6863C134.107 86.6312 134.208 86.6107 134.306 86.629L155.107 89.9615L154.425 56.993C154.423 56.9419 154.431 56.8908 154.449 56.8429C154.467 56.7951 154.495 56.7513 154.53 56.7144C154.566 56.6775 154.608 56.6481 154.656 56.6281C154.703 56.608 154.753 56.5977 154.805 56.5978C154.905 56.5997 155.002 56.6401 155.074 56.7107C155.146 56.7813 155.188 56.8767 155.192 56.9775L155.882 90.411C155.882 90.4675 155.87 90.5233 155.846 90.5744C155.822 90.6254 155.786 90.6702 155.742 90.7055C155.701 90.7429 155.651 90.7706 155.598 90.7867C155.544 90.8028 155.488 90.8068 155.432 90.7985L134.507 87.4505L131.446 100.246L141.8 104.95C141.846 104.971 141.888 105.001 141.922 105.038C141.957 105.075 141.984 105.119 142.001 105.167C142.018 105.214 142.026 105.265 142.023 105.316C142.021 105.366 142.008 105.416 141.986 105.462C141.964 105.531 141.922 105.593 141.866 105.64C141.81 105.687 141.741 105.716 141.668 105.725Z" fill="#231F20"/>
<path d="M49.451 133.524C47.6452 132.16 45.483 131.439 43.9562 133.524H49.451Z" fill="white"/>
<path d="M49.451 133.881H43.9562C43.8907 133.88 43.8267 133.862 43.7707 133.827C43.7148 133.793 43.6691 133.745 43.6385 133.687C43.6042 133.631 43.5861 133.567 43.5861 133.501C43.5861 133.435 43.6042 133.371 43.6385 133.315C43.8865 132.942 44.2084 132.623 44.5843 132.379C44.9602 132.135 45.3821 131.971 45.824 131.897C46.9477 131.726 48.2342 132.183 49.637 133.245C49.6954 133.291 49.7385 133.353 49.7606 133.424C49.7828 133.494 49.7829 133.57 49.761 133.64C49.7368 133.705 49.695 133.762 49.6402 133.805C49.5855 133.847 49.5199 133.874 49.451 133.881ZM44.7467 133.175H48.273C47.5819 132.734 46.7656 132.53 45.948 132.594C45.4994 132.666 45.0818 132.869 44.7467 133.175Z" fill="#231F20"/>
<path d="M89.0458 121.884H88.9838C88.8834 121.867 88.7938 121.811 88.7343 121.728C88.6748 121.645 88.6503 121.543 88.666 121.442C88.728 121.054 90.216 111.956 93.0913 107.337C93.1487 107.259 93.2335 107.205 93.3288 107.186C93.4241 107.167 93.523 107.185 93.6058 107.236C93.6887 107.286 93.7495 107.366 93.7762 107.46C93.8029 107.553 93.7935 107.653 93.75 107.74C90.9833 112.227 89.441 121.473 89.4255 121.566C89.4107 121.656 89.3642 121.737 89.2945 121.795C89.2249 121.854 89.1366 121.885 89.0458 121.884Z" fill="white"/>
<path d="M136.941 54.3347L137.731 56.9852L127.85 77.3367L130.663 84.614L136.832 79.3517L139.367 56.9697L140.676 55.6212L139.328 53.366L136.941 54.3347Z" fill="#231F20"/>
<path d="M202.025 72.3147V165.904H29.2235V72.3147L115.628 131.153L202.025 72.3147Z" fill="white"/>
<path d="M202.025 166.291H29.2002C29.0975 166.291 28.9989 166.25 28.9262 166.178C28.8536 166.105 28.8127 166.006 28.8127 165.904V72.3147C28.8124 72.244 28.8319 72.1746 28.8688 72.1144C28.9058 72.0542 28.9588 72.0054 29.022 71.9737C29.083 71.9375 29.1526 71.9185 29.2235 71.9185C29.2944 71.9185 29.364 71.9375 29.425 71.9737L115.605 130.672L201.785 71.9737C201.845 71.9374 201.913 71.9182 201.983 71.9182C202.052 71.9182 202.121 71.9374 202.18 71.9737C202.244 72.0047 202.298 72.0533 202.335 72.1137C202.372 72.1741 202.391 72.2438 202.389 72.3147V165.904C202.39 166.003 202.352 166.098 202.284 166.17C202.217 166.242 202.124 166.285 202.025 166.291ZM29.611 165.516H201.661V73.0432L115.868 131.478C115.804 131.52 115.728 131.542 115.651 131.542C115.575 131.542 115.499 131.52 115.435 131.478L29.611 73.0432V165.516Z" fill="#231F20"/>
<path d="M115.628 131.54C115.552 131.54 115.477 131.518 115.411 131.478L29.0065 72.6325C28.9228 72.5745 28.8653 72.4858 28.8465 72.3858C28.8276 72.2857 28.8489 72.1822 28.9058 72.0977C28.964 72.0122 29.0534 71.953 29.1549 71.9327C29.2563 71.9124 29.3616 71.9327 29.4483 71.9892L115.628 130.688L201.808 71.9892C201.894 71.9331 201.998 71.9131 202.098 71.9334C202.198 71.9537 202.286 72.0128 202.343 72.0977C202.372 72.1392 202.393 72.1861 202.403 72.2357C202.414 72.2853 202.415 72.3365 202.405 72.3864C202.396 72.4362 202.377 72.4836 202.349 72.5259C202.321 72.5682 202.285 72.6044 202.242 72.6325L115.845 131.478C115.78 131.517 115.705 131.539 115.628 131.54Z" fill="#231F20"/>
<path d="M29.2235 165.904L115.62 112.049L202.025 165.904H29.2235Z" fill="white"/>
<path d="M202.025 166.291H29.2003C29.1164 166.291 29.0349 166.264 28.9678 166.214C28.9007 166.163 28.8518 166.093 28.8283 166.012C28.8044 165.931 28.8082 165.845 28.8391 165.766C28.8699 165.687 28.9261 165.621 28.9988 165.578L115.45 111.724C115.512 111.686 115.583 111.666 115.655 111.666C115.728 111.666 115.799 111.686 115.861 111.724L202.25 165.578C202.323 165.621 202.379 165.687 202.41 165.766C202.441 165.845 202.444 165.931 202.421 166.012C202.396 166.097 202.344 166.17 202.272 166.221C202.2 166.272 202.113 166.297 202.025 166.291ZM30.5798 165.516H200.7L115.659 112.506L30.5798 165.516Z" fill="#231F20"/>
<path d="M207.908 119.413L159.606 131.761L166.45 158.536L214.753 146.188L207.908 119.413Z" fill="#6EA9EE"/>
<path d="M166.453 158.929C166.382 158.926 166.313 158.908 166.251 158.874C166.165 158.818 166.102 158.733 166.073 158.634L159.23 131.858C159.206 131.758 159.222 131.653 159.274 131.565C159.326 131.477 159.41 131.412 159.509 131.385L207.814 119.039C207.91 119.004 208.014 119.004 208.109 119.039C208.154 119.065 208.193 119.099 208.223 119.141C208.254 119.182 208.276 119.229 208.287 119.28L215.13 146.056C215.143 146.105 215.146 146.157 215.139 146.207C215.132 146.258 215.115 146.306 215.089 146.35C215.063 146.394 215.029 146.433 214.988 146.463C214.947 146.494 214.901 146.516 214.851 146.529L166.546 158.874L166.453 158.929ZM160.082 132.075L166.732 158.099L214.286 145.94L207.675 119.884L160.082 132.075Z" fill="#231F20"/>
<path d="M166.453 158.541L186.765 137.345L214.759 146.188L166.453 158.541Z" fill="#6EA9EE"/>
<path d="M166.453 158.929C166.385 158.928 166.319 158.91 166.26 158.876C166.202 158.842 166.153 158.794 166.12 158.735C166.074 158.663 166.054 158.577 166.064 158.493C166.074 158.408 166.113 158.33 166.174 158.27L186.487 137.081C186.536 137.029 186.599 136.991 186.669 136.972C186.739 136.953 186.812 136.953 186.882 136.973L214.875 145.823C214.955 145.849 215.025 145.899 215.074 145.968C215.123 146.036 215.148 146.119 215.146 146.203C215.142 146.287 215.112 146.368 215.059 146.434C215.006 146.499 214.933 146.546 214.852 146.567L166.546 158.913L166.453 158.929ZM186.882 137.787L167.67 157.828L213.348 146.149L186.882 137.787Z" fill="#231F20"/>
<path d="M159.61 131.765L187.944 141.948L207.915 119.411L159.61 131.765Z" fill="#6EA9EE"/>
<path d="M187.944 142.336C187.9 142.344 187.855 142.344 187.812 142.336L159.478 132.153C159.4 132.125 159.334 132.073 159.288 132.004C159.242 131.936 159.219 131.855 159.222 131.773C159.225 131.69 159.255 131.61 159.306 131.544C159.358 131.479 159.429 131.431 159.509 131.409L207.814 119.063C207.894 119.043 207.978 119.049 208.055 119.08C208.131 119.11 208.196 119.164 208.241 119.233C208.286 119.304 208.306 119.388 208.299 119.472C208.292 119.556 208.258 119.635 208.202 119.698L188.23 142.228C188.193 142.265 188.148 142.294 188.099 142.313C188.049 142.331 187.996 142.339 187.944 142.336ZM160.927 131.827L187.827 141.491L206.784 120.101L160.927 131.827Z" fill="#231F20"/>
<path d="M233.502 94.2746L205.937 101.091L209.715 116.371L237.281 109.555L233.502 94.2746Z" fill="#6EA9EE"/>
<path d="M209.713 116.753C209.626 116.753 209.542 116.724 209.473 116.67C209.405 116.617 209.356 116.543 209.334 116.459L205.559 101.184C205.535 101.084 205.551 100.979 205.603 100.891C205.655 100.803 205.74 100.738 205.838 100.711L233.405 93.8985C233.454 93.8846 233.505 93.8809 233.555 93.8876C233.606 93.8943 233.654 93.9113 233.698 93.9374C233.741 93.9636 233.779 93.9983 233.809 94.0396C233.838 94.0809 233.859 94.1279 233.87 94.1775L237.652 109.453C237.664 109.502 237.666 109.554 237.658 109.605C237.65 109.655 237.632 109.704 237.605 109.747C237.58 109.792 237.545 109.831 237.504 109.862C237.463 109.892 237.415 109.914 237.365 109.925L209.806 116.738L209.713 116.753ZM206.404 101.37L210 115.893L236.807 109.267L233.25 94.7433L206.404 101.37Z" fill="#231F20"/>
<path d="M209.713 116.366L221.377 104.384L237.272 109.546L209.713 116.366Z" fill="#6EA9EE"/>
<path d="M209.713 116.753C209.645 116.754 209.578 116.737 209.52 116.703C209.461 116.669 209.413 116.619 209.38 116.559C209.337 116.487 209.319 116.402 209.329 116.318C209.339 116.234 209.376 116.155 209.434 116.094L221.098 104.121C221.147 104.068 221.211 104.031 221.281 104.013C221.351 103.995 221.425 103.997 221.493 104.02L237.396 109.181C237.499 109.181 237.598 109.222 237.67 109.295C237.743 109.368 237.784 109.466 237.784 109.569C237.784 109.672 237.743 109.77 237.67 109.843C237.598 109.916 237.499 109.956 237.396 109.956L209.837 116.769L209.713 116.753ZM221.486 104.834L210.938 115.684L235.862 109.522L221.486 104.834Z" fill="#231F20"/>
<path d="M205.931 101.091L222.02 107.012L233.498 94.2705L205.931 101.091Z" fill="#6EA9EE"/>
<path d="M222.028 107.399C221.982 107.406 221.935 107.406 221.888 107.399L205.799 101.478C205.722 101.448 205.656 101.395 205.612 101.325C205.567 101.255 205.546 101.173 205.552 101.091C205.554 101.008 205.583 100.929 205.635 100.864C205.687 100.8 205.758 100.754 205.838 100.734L233.405 93.9218C233.485 93.9011 233.569 93.9065 233.646 93.9371C233.723 93.9678 233.788 94.0222 233.831 94.0923C233.874 94.1647 233.892 94.2488 233.884 94.3324C233.876 94.416 233.841 94.4948 233.785 94.5573L222.315 107.275C222.239 107.352 222.136 107.396 222.028 107.399ZM207.256 101.199L221.912 106.624L232.366 94.9991L207.256 101.199Z" fill="#231F20"/>
<path d="M192.431 90.4212L169.839 100.537L175.444 113.057L198.037 102.941L192.431 90.4212Z" fill="#6EA9EE"/>
<path d="M175.451 113.475C175.376 113.477 175.302 113.457 175.238 113.417C175.175 113.377 175.125 113.319 175.094 113.25L169.491 100.726C169.469 100.68 169.457 100.63 169.455 100.579C169.453 100.528 169.461 100.477 169.479 100.429C169.497 100.382 169.525 100.338 169.56 100.301C169.595 100.264 169.638 100.235 169.685 100.215L192.268 90.101C192.363 90.0587 192.47 90.0553 192.567 90.0916C192.664 90.1278 192.743 90.2008 192.787 90.2947L198.375 102.78C198.414 102.874 198.414 102.98 198.375 103.074C198.336 103.169 198.264 103.246 198.173 103.291L175.582 113.366C175.547 113.412 175.502 113.449 175.451 113.475ZM170.351 100.765L175.644 112.576L197.522 102.78L192.237 90.969L170.351 100.765Z" fill="#231F20"/>
<path d="M175.451 113.049L183.596 100.974L198.034 102.935L175.451 113.049Z" fill="#6EA9EE"/>
<path d="M175.451 113.475C175.379 113.479 175.307 113.462 175.245 113.427C175.182 113.392 175.13 113.339 175.096 113.276C175.062 113.213 175.047 113.141 175.052 113.069C175.057 112.997 175.082 112.928 175.125 112.871L183.278 100.796C183.318 100.736 183.374 100.688 183.44 100.658C183.505 100.628 183.578 100.616 183.65 100.626L198.088 102.594C198.172 102.605 198.249 102.642 198.309 102.701C198.369 102.76 198.409 102.836 198.422 102.92C198.433 103.003 198.417 103.088 198.376 103.162C198.336 103.236 198.273 103.295 198.197 103.33L175.606 113.405C175.56 113.44 175.507 113.463 175.451 113.475ZM183.782 101.424L176.528 112.181L196.639 103.175L183.782 101.424Z" fill="#231F20"/>
<path d="M169.839 100.532L184.564 103.121L192.431 90.4187L169.839 100.532Z" fill="#6EA9EE"/>
<path d="M184.557 103.509H184.495L169.77 100.92C169.689 100.905 169.615 100.865 169.559 100.805C169.503 100.745 169.469 100.668 169.46 100.587C169.449 100.504 169.465 100.421 169.506 100.348C169.546 100.276 169.609 100.218 169.685 100.184L192.268 90.07C192.345 90.0359 192.431 90.0273 192.513 90.0454C192.595 90.0635 192.67 90.1074 192.725 90.1708C192.775 90.2366 192.802 90.3169 192.802 90.3994C192.802 90.4819 192.775 90.5621 192.725 90.628L184.859 103.338C184.825 103.388 184.78 103.429 184.728 103.458C184.675 103.488 184.617 103.505 184.557 103.509ZM171.149 100.409L184.371 102.734L191.439 91.3255L171.149 100.409Z" fill="#231F20"/>
<path d="M93.3083 0.596281H47.8623C46.4379 0.596281 45.0718 1.16213 44.0646 2.16934C43.0574 3.17655 42.4915 4.54262 42.4915 5.96703V29.217C42.4915 29.9223 42.6304 30.6207 42.9003 31.2723C43.1702 31.9239 43.5658 32.516 44.0646 33.0147C44.5633 33.5134 45.1554 33.9091 45.807 34.179C46.4586 34.4489 47.157 34.5878 47.8623 34.5878H88.325L93.1455 42.8493L93.2075 34.5878H93.3393C94.0446 34.5878 94.743 34.4489 95.3946 34.179C96.0462 33.9091 96.6382 33.5134 97.137 33.0147C97.6357 32.516 98.0313 31.9239 98.3012 31.2723C98.5711 30.6207 98.71 29.9223 98.71 29.217V5.96703C98.71 5.25912 98.5701 4.55819 98.2982 3.90455C98.0264 3.25091 97.628 2.65746 97.126 2.15834C96.624 1.65921 96.0283 1.26425 95.3731 0.996174C94.7179 0.728099 94.0162 0.592195 93.3083 0.596281Z" fill="white"/>
<path d="M93.1145 43.2367C93.0469 43.2363 92.9805 43.2182 92.9221 43.1842C92.8636 43.1503 92.8151 43.1016 92.7813 43.043L88.077 34.9752H47.8623C46.3357 34.9732 44.8723 34.3659 43.7928 33.2864C42.7134 32.207 42.1061 30.7435 42.104 29.217V5.96699C42.1061 4.44044 42.7134 2.97699 43.7928 1.89756C44.8723 0.81812 46.3357 0.210791 47.8623 0.20874H93.3083C94.8354 0.20874 96.3001 0.815412 97.38 1.89529C98.4598 2.97517 99.0665 4.43981 99.0665 5.96699V29.217C99.066 30.6995 98.4937 32.1248 97.4687 33.1959C96.4437 34.2671 95.0451 34.9016 93.564 34.9675L93.502 42.857C93.5025 42.9412 93.4744 43.0231 93.4223 43.0892C93.3702 43.1554 93.2972 43.2019 93.2153 43.2212C93.1835 43.2346 93.1488 43.24 93.1145 43.2367ZM47.8623 0.98374C46.5412 0.98579 45.2749 1.51147 44.3408 2.44557C43.4067 3.37966 42.8811 4.64598 42.879 5.96699V29.217C42.8811 30.538 43.4067 31.8043 44.3408 32.7384C45.2749 33.6725 46.5412 34.1982 47.8623 34.2002H88.325C88.3939 34.1993 88.4619 34.2167 88.5218 34.2508C88.5818 34.2848 88.6315 34.3343 88.666 34.394L92.7735 41.4387L92.82 34.5877C92.82 34.485 92.8608 34.3864 92.9335 34.3137C93.0062 34.2411 93.1047 34.2002 93.2075 34.2002H93.3393C94.6603 34.1982 95.9266 33.6725 96.8607 32.7384C97.7948 31.8043 98.3204 30.538 98.3225 29.217V5.96699C98.3225 4.64535 97.7975 3.37784 96.8629 2.4433C95.9284 1.50876 94.6609 0.98374 93.3393 0.98374H47.8623Z" fill="#231F20"/>
<path d="M63.0988 18.8088L83.4658 6.3468L66.2065 13.5311L63.0988 18.8088Z" fill="#231F20"/>
<path d="M63.0988 19.1963C62.9965 19.1948 62.8991 19.153 62.8275 19.08C62.7671 19.0187 62.7284 18.9394 62.7172 18.8541C62.706 18.7687 62.723 18.6821 62.7655 18.6073L65.8655 13.3373C65.9076 13.2638 65.9731 13.2065 66.0515 13.1745L83.3108 5.98253C83.4011 5.94492 83.5023 5.94287 83.5941 5.97679C83.6858 6.01071 83.7614 6.07809 83.8055 6.16541C83.8497 6.25273 83.8592 6.35351 83.8321 6.44753C83.805 6.54155 83.7433 6.62184 83.6595 6.67228L63.3003 19.1343C63.2401 19.1732 63.1704 19.1946 63.0988 19.1963ZM66.4778 13.841L64.2225 17.6618L79.025 8.62528L66.4778 13.841Z" fill="#231F20"/>
<path d="M66.2065 13.5311L72.8715 16.9333L83.4658 6.3468L66.2065 13.5311Z" fill="#6EA9EE"/>
<path d="M72.8715 17.2897C72.8178 17.3012 72.7624 17.3012 72.7087 17.2897L66.0515 13.8875C65.9797 13.8544 65.9209 13.7983 65.8844 13.7282C65.848 13.658 65.8358 13.5777 65.85 13.5C65.8515 13.4326 65.8729 13.3673 65.9115 13.3121C65.9502 13.2569 66.0042 13.2144 66.067 13.19L83.3262 5.99796C83.4018 5.97043 83.4845 5.96928 83.5608 5.9947C83.6372 6.02011 83.7027 6.0706 83.7467 6.13795C83.7907 6.2053 83.8106 6.28556 83.8032 6.36567C83.7958 6.44578 83.7616 6.52104 83.706 6.57921L73.1195 17.1812C73.0538 17.2479 72.965 17.2867 72.8715 17.2897ZM67.0512 13.562L72.825 16.4992L81.97 7.36196L67.0512 13.562Z" fill="#231F20"/>
<path d="M83.4658 6.3468L61.541 11.5781L56.5578 8.7338L83.4658 6.3468Z" fill="#6EA9EE"/>
<path d="M61.541 11.95C61.481 11.9501 61.4221 11.934 61.3705 11.9035L56.3795 9.05146C56.3149 9.014 56.2637 8.95719 56.2331 8.88905C56.2025 8.82091 56.1941 8.74489 56.209 8.67171C56.2253 8.59738 56.2649 8.53021 56.3221 8.48001C56.3792 8.42981 56.451 8.39922 56.5268 8.39271L83.4348 6.00571C83.5227 6.00196 83.6091 6.02949 83.6786 6.08341C83.7481 6.13733 83.7963 6.21414 83.8145 6.30021C83.8289 6.38816 83.8099 6.47832 83.7611 6.55291C83.7123 6.62751 83.6374 6.68113 83.551 6.70321L61.6263 11.95H61.541ZM57.7125 8.99721L61.5875 11.2215L78.6375 7.13721L57.7125 8.99721Z" fill="#231F20"/>
<path d="M61.541 11.5781L63.0988 18.8088L66.2065 13.5311L83.4658 6.3468L61.541 11.5781Z" fill="#6EA9EE"/>
<path d="M63.0987 19.1576H63.0445C62.9738 19.1461 62.9084 19.1132 62.8571 19.0633C62.8058 19.0133 62.7711 18.9489 62.7577 18.8786L61.2077 11.6555C61.1974 11.6108 61.1961 11.5644 61.2038 11.5191C61.2114 11.4738 61.228 11.4304 61.2525 11.3915C61.277 11.3526 61.3089 11.319 61.3464 11.2925C61.384 11.2659 61.4264 11.2471 61.4712 11.2371L83.3882 5.99805C83.4754 5.97933 83.5663 5.9925 83.6445 6.03517C83.7227 6.07784 83.7831 6.14717 83.8145 6.23055C83.8411 6.31607 83.8352 6.40841 83.7981 6.48989C83.7609 6.57138 83.695 6.63632 83.613 6.6723L66.4545 13.8101L63.4087 18.9871C63.3758 19.0395 63.3301 19.0826 63.2758 19.1125C63.2216 19.1423 63.1606 19.1578 63.0987 19.1576ZM61.975 11.8415L63.2692 17.8478L65.9197 13.3528C65.9587 13.2862 66.0187 13.2344 66.0902 13.2055L79.2652 7.7108L61.975 11.8415Z" fill="#231F20"/>
<path d="M63.1712 25.0895C62.3574 24.8556 61.7643 24.569 61.392 24.2296C61.023 23.887 60.8385 23.4652 60.8385 22.9644C60.8385 22.3977 61.0642 21.9299 61.5155 21.5609C61.9702 21.1886 62.56 21.0024 63.2848 21.0024C63.779 21.0024 64.2189 21.0979 64.6044 21.289C64.9932 21.4801 65.293 21.7437 65.5038 22.0798C65.718 22.4159 65.8251 22.7832 65.8251 23.1819H64.8713C64.8713 22.747 64.7329 22.406 64.4561 22.1589C64.1794 21.9085 63.7889 21.7833 63.2848 21.7833C62.817 21.7833 62.4513 21.887 62.1877 22.0946C61.9274 22.2989 61.7972 22.5839 61.7972 22.9496C61.7972 23.2428 61.9208 23.4916 62.1679 23.6959C62.4183 23.8968 62.8417 24.0814 63.438 24.2494C64.0377 24.4174 64.5055 24.6036 64.8416 24.8078C65.181 25.0088 65.4314 25.2444 65.5928 25.5146C65.7575 25.7847 65.8399 26.1027 65.8399 26.4684C65.8399 27.0516 65.6126 27.5194 65.1579 27.872C64.7032 28.2212 64.0953 28.3958 63.3342 28.3958C62.84 28.3958 62.3788 28.3019 61.9504 28.1141C61.5221 27.923 61.191 27.6628 60.9571 27.3333C60.7264 27.0038 60.6111 26.6298 60.6111 26.2114H61.565C61.565 26.6463 61.7248 26.9906 62.0444 27.2443C62.3672 27.4947 62.7972 27.6199 63.3342 27.6199C63.8351 27.6199 64.2189 27.5178 64.4858 27.3135C64.7526 27.1092 64.8861 26.8308 64.8861 26.4783C64.8861 26.1258 64.7625 25.8539 64.5154 25.6628C64.2683 25.4684 63.8202 25.2774 63.1712 25.0895ZM69.1363 28.3958C68.4115 28.3958 67.8217 28.1586 67.367 27.6842C66.9124 27.2064 66.685 26.5689 66.685 25.7716V25.6035C66.685 25.0731 66.7855 24.6003 66.9865 24.1851C67.1908 23.7667 67.4741 23.4405 67.8365 23.2066C68.2023 22.9694 68.5976 22.8508 69.0227 22.8508C69.7178 22.8508 70.2582 23.0797 70.6437 23.5377C71.0292 23.9957 71.2219 24.6513 71.2219 25.5047V25.8852H67.5993C67.6125 26.4124 67.7657 26.8391 68.0589 27.1652C68.3555 27.4881 68.7311 27.6496 69.1857 27.6496C69.5086 27.6496 69.7821 27.5837 70.0061 27.4519C70.2302 27.3201 70.4262 27.1455 70.5943 26.928L71.1527 27.3629C70.7046 28.0515 70.0325 28.3958 69.1363 28.3958ZM69.0227 23.602C68.6536 23.602 68.3439 23.7371 68.0935 24.0072C67.8431 24.2741 67.6883 24.6497 67.629 25.134H70.3076V25.0648C70.2812 24.6003 70.156 24.2411 69.932 23.9875C69.708 23.7305 69.4048 23.602 69.0227 23.602ZM73.1493 22.9496L73.179 23.6217C73.5875 23.1078 74.1213 22.8508 74.7802 22.8508C75.9103 22.8508 76.4803 23.4883 76.4902 24.7634V28.297H75.5759V24.7584C75.5726 24.3729 75.4837 24.0879 75.3091 23.9034C75.1377 23.7189 74.8692 23.6267 74.5035 23.6267C74.207 23.6267 73.9467 23.7058 73.7226 23.8639C73.4986 24.022 73.324 24.2296 73.1988 24.4866V28.297H72.2845V22.9496H73.1493ZM79.1096 21.6548V22.9496H80.1079V23.6563H79.1096V26.9725C79.1096 27.1867 79.154 27.3481 79.243 27.4568C79.332 27.5623 79.4835 27.615 79.6977 27.615C79.8031 27.615 79.9481 27.5952 80.1326 27.5557V28.297C79.8921 28.3629 79.6581 28.3958 79.4308 28.3958C79.0222 28.3958 78.7142 28.2723 78.5066 28.0252C78.299 27.7781 78.1953 27.4272 78.1953 26.9725V23.6563H77.2217V22.9496H78.1953V21.6548H79.1096Z" fill="black"/>
<path d="M90.185 156.759C90.0822 156.759 89.9837 156.718 89.911 156.645C89.8383 156.573 89.7975 156.474 89.7975 156.371C89.7975 156.268 89.8383 156.17 89.911 156.097C89.9837 156.025 90.0822 155.984 90.185 155.984C91.2158 155.984 92.2465 155.984 93.285 155.906C93.3878 155.906 93.4864 155.947 93.559 156.02C93.6317 156.092 93.6725 156.191 93.6725 156.294C93.6725 156.396 93.6317 156.495 93.559 156.568C93.4864 156.64 93.3878 156.681 93.285 156.681C92.2465 156.72 91.208 156.743 90.185 156.759ZM87.085 156.759C86.0543 156.759 85.0158 156.759 83.985 156.681C83.8836 156.677 83.7878 156.633 83.7183 156.56C83.6487 156.486 83.6109 156.387 83.613 156.286C83.619 156.183 83.664 156.087 83.739 156.016C83.8139 155.945 83.913 155.906 84.016 155.906C85.0468 155.945 86.0698 155.968 87.116 155.984C87.2188 155.984 87.3174 156.025 87.39 156.097C87.4627 156.17 87.5035 156.268 87.5035 156.371C87.5035 156.474 87.4627 156.573 87.39 156.645C87.3174 156.718 87.2188 156.759 87.116 156.759H87.085ZM96.385 156.542C96.2869 156.542 96.1926 156.504 96.1218 156.436C96.051 156.368 96.0093 156.275 96.0053 156.177C96.0021 156.127 96.0091 156.076 96.0257 156.027C96.0423 155.979 96.0683 155.935 96.1021 155.896C96.136 155.858 96.177 155.827 96.2229 155.805C96.2688 155.783 96.3186 155.77 96.3695 155.767C97.3925 155.712 98.4233 155.643 99.4695 155.557C99.52 155.553 99.5709 155.559 99.6191 155.575C99.6672 155.591 99.7118 155.616 99.7501 155.649C99.7884 155.682 99.8196 155.723 99.842 155.768C99.8643 155.814 99.8773 155.863 99.8803 155.914C99.8845 155.965 99.8786 156.016 99.863 156.065C99.8473 156.113 99.8222 156.158 99.7891 156.197C99.756 156.236 99.7155 156.268 99.6699 156.291C99.6244 156.315 99.5747 156.329 99.5238 156.332C98.493 156.41 97.4623 156.48 96.4238 156.542H96.385ZM80.885 156.542C79.8465 156.48 78.8158 156.41 77.785 156.325C77.7341 156.321 77.6845 156.307 77.6391 156.283C77.5936 156.26 77.5532 156.228 77.5201 156.189C77.487 156.15 77.4619 156.105 77.4462 156.057C77.4304 156.008 77.4245 155.957 77.4285 155.906C77.4326 155.855 77.4466 155.806 77.4699 155.76C77.4931 155.715 77.5251 155.674 77.5639 155.641C77.6028 155.608 77.6478 155.583 77.6964 155.567C77.7449 155.552 77.7961 155.546 77.847 155.55C78.8778 155.635 79.9008 155.705 80.947 155.767C81.0498 155.767 81.1484 155.808 81.221 155.88C81.2937 155.953 81.3345 156.051 81.3345 156.154C81.3345 156.257 81.2937 156.356 81.221 156.428C81.1484 156.501 81.0498 156.542 80.947 156.542H80.885ZM102.585 156.053C102.49 156.051 102.398 156.014 102.327 155.95C102.256 155.886 102.21 155.799 102.198 155.705C102.192 155.654 102.197 155.602 102.212 155.553C102.226 155.504 102.251 155.458 102.283 155.419C102.315 155.379 102.355 155.346 102.401 155.322C102.446 155.298 102.495 155.283 102.546 155.278C103.58 155.17 104.613 155.054 105.646 154.93C105.697 154.923 105.749 154.927 105.798 154.94C105.848 154.953 105.894 154.976 105.935 155.008C105.976 155.039 106.01 155.078 106.035 155.122C106.061 155.167 106.078 155.216 106.084 155.267C106.091 155.318 106.087 155.369 106.074 155.419C106.061 155.468 106.038 155.515 106.006 155.556C105.975 155.596 105.936 155.63 105.891 155.656C105.847 155.682 105.798 155.698 105.747 155.705C104.714 155.839 103.68 155.955 102.647 156.053H102.585ZM74.7393 156.053H74.7005C73.6698 155.937 72.639 155.813 71.6005 155.681C71.4977 155.668 71.4045 155.614 71.3413 155.532C71.278 155.45 71.25 155.346 71.2634 155.244C71.2768 155.141 71.3304 155.048 71.4125 154.984C71.4946 154.921 71.5985 154.893 71.7013 154.906C72.7165 155.038 73.7395 155.162 74.8013 155.271C74.904 155.277 75.0002 155.324 75.0685 155.401C75.1368 155.478 75.1717 155.579 75.1655 155.681C75.1594 155.784 75.1126 155.88 75.0356 155.949C74.9586 156.017 74.8575 156.052 74.7548 156.046L74.7393 156.053ZM108.739 155.278C108.647 155.278 108.559 155.245 108.489 155.185C108.42 155.126 108.373 155.043 108.359 154.953C108.35 154.902 108.352 154.851 108.363 154.801C108.375 154.751 108.397 154.704 108.427 154.663C108.458 154.621 108.496 154.587 108.54 154.561C108.584 154.535 108.633 154.518 108.684 154.511C109.7 154.356 110.723 154.193 111.738 154.023C111.788 154.014 111.839 154.015 111.888 154.027C111.938 154.038 111.985 154.059 112.026 154.089C112.067 154.118 112.102 154.156 112.128 154.199C112.155 154.242 112.172 154.291 112.18 154.341C112.19 154.39 112.189 154.441 112.179 154.491C112.169 154.54 112.148 154.587 112.119 154.628C112.09 154.669 112.053 154.704 112.01 154.731C111.967 154.758 111.919 154.775 111.87 154.782C110.847 154.961 109.824 155.123 108.77 155.278H108.739ZM68.6013 155.216H68.5393C67.5163 155.054 66.4933 154.875 65.478 154.689C65.4271 154.68 65.3785 154.661 65.335 154.633C65.2915 154.605 65.254 154.569 65.2244 154.527C65.1949 154.484 65.1741 154.436 65.1631 154.386C65.1521 154.335 65.1511 154.283 65.1603 154.232C65.1694 154.181 65.1885 154.133 65.2165 154.089C65.2444 154.046 65.2806 154.008 65.3231 153.979C65.3655 153.949 65.4134 153.928 65.4639 153.917C65.5144 153.906 65.5666 153.905 65.6175 153.914C66.6328 154.108 67.648 154.279 68.6633 154.441C68.7142 154.446 68.7637 154.46 68.8092 154.483C68.8547 154.506 68.8951 154.538 68.9282 154.577C68.9613 154.616 68.9864 154.661 69.0021 154.709C69.0178 154.758 69.0238 154.809 69.0198 154.86C69.0157 154.911 69.0016 154.96 68.9784 155.006C68.9552 155.051 68.9232 155.092 68.8844 155.125C68.8455 155.158 68.8005 155.183 68.7519 155.199C68.7033 155.215 68.6522 155.221 68.6013 155.216ZM114.853 154.232C114.751 154.242 114.648 154.212 114.568 154.146C114.488 154.081 114.437 153.986 114.427 153.883C114.417 153.781 114.448 153.678 114.513 153.598C114.579 153.518 114.673 153.467 114.776 153.457C115.791 153.256 116.806 153.046 117.806 152.829C117.909 152.807 118.016 152.826 118.105 152.883C118.194 152.939 118.256 153.029 118.279 153.132C118.301 153.234 118.282 153.342 118.226 153.431C118.169 153.519 118.079 153.582 117.977 153.604L114.931 154.232H114.853ZM62.5175 154.077H62.4323C61.417 153.86 60.4095 153.628 59.402 153.38C59.3529 153.368 59.3066 153.346 59.2659 153.317C59.2252 153.287 59.1909 153.249 59.1649 153.206C59.1389 153.162 59.1218 153.114 59.1146 153.064C59.1074 153.014 59.1103 152.964 59.123 152.915C59.1469 152.815 59.2093 152.729 59.2964 152.675C59.3835 152.622 59.4883 152.605 59.588 152.628C60.5878 152.876 61.5875 153.101 62.595 153.318C62.645 153.329 62.6923 153.349 62.7342 153.379C62.7761 153.408 62.8118 153.446 62.8392 153.489C62.8666 153.532 62.8851 153.58 62.8937 153.631C62.9024 153.681 62.9009 153.733 62.8895 153.783C62.8694 153.871 62.8186 153.949 62.7462 154.003C62.6737 154.057 62.5844 154.083 62.4943 154.077H62.5175ZM120.875 152.907C120.789 152.907 120.705 152.878 120.637 152.825C120.57 152.771 120.522 152.696 120.503 152.612C120.49 152.563 120.487 152.512 120.494 152.461C120.501 152.411 120.518 152.362 120.544 152.318C120.57 152.274 120.605 152.236 120.645 152.205C120.686 152.175 120.733 152.152 120.782 152.14C121.79 151.892 122.789 151.633 123.781 151.365C123.88 151.339 123.985 151.352 124.073 151.403C124.162 151.454 124.227 151.538 124.254 151.636C124.278 151.736 124.264 151.841 124.214 151.93C124.163 152.019 124.081 152.086 123.983 152.116C122.983 152.38 121.976 152.636 120.968 152.891L120.875 152.907ZM56.4648 152.612H56.3563C55.3565 152.333 54.3645 152.047 53.3725 151.744C53.2697 151.714 53.1834 151.643 53.1326 151.549C53.0817 151.454 53.0704 151.343 53.1013 151.241C53.1321 151.138 53.2025 151.052 53.297 151.001C53.3914 150.95 53.5022 150.939 53.605 150.969C54.5815 151.272 55.5735 151.558 56.5655 151.83C56.6645 151.859 56.7482 151.925 56.7989 152.015C56.8495 152.105 56.8631 152.211 56.8368 152.31C56.8183 152.393 56.7736 152.467 56.7092 152.521C56.6449 152.576 56.5645 152.608 56.4803 152.612H56.4648ZM126.866 151.287C126.763 151.302 126.659 151.275 126.576 151.212C126.493 151.15 126.438 151.057 126.424 150.954C126.41 150.851 126.437 150.747 126.499 150.664C126.562 150.581 126.654 150.527 126.757 150.512C127.749 150.225 128.734 149.915 129.71 149.605C129.761 149.59 129.814 149.584 129.867 149.589C129.921 149.594 129.972 149.609 130.019 149.634C130.066 149.659 130.108 149.693 130.142 149.734C130.176 149.775 130.202 149.822 130.218 149.873C130.233 149.924 130.239 149.977 130.234 150.03C130.229 150.083 130.214 150.135 130.189 150.182C130.164 150.229 130.13 150.271 130.089 150.305C130.048 150.339 130.001 150.365 129.95 150.38C128.966 150.698 127.974 151 126.974 151.295C126.943 151.298 126.911 151.296 126.881 151.287H126.866ZM50.5438 150.791C50.5028 150.799 50.4608 150.799 50.4198 150.791C49.4355 150.458 48.459 150.101 47.498 149.737C47.4132 149.694 47.3473 149.621 47.313 149.532C47.2786 149.443 47.2781 149.345 47.3117 149.256C47.3452 149.167 47.4104 149.093 47.4948 149.049C47.5792 149.005 47.6769 148.993 47.7693 149.016C48.7303 149.373 49.6913 149.722 50.6678 150.055C50.7645 150.09 50.8437 150.162 50.8886 150.254C50.9335 150.347 50.9404 150.453 50.908 150.551C50.8803 150.621 50.8324 150.681 50.7702 150.724C50.7081 150.767 50.6347 150.79 50.5593 150.791H50.5438ZM132.771 149.381C132.691 149.382 132.613 149.358 132.548 149.312C132.482 149.266 132.433 149.2 132.407 149.125C132.375 149.027 132.382 148.921 132.426 148.828C132.471 148.736 132.551 148.664 132.647 148.629C133.624 148.288 134.593 147.931 135.554 147.567C135.601 147.549 135.651 147.54 135.702 147.541C135.753 147.542 135.803 147.554 135.849 147.575C135.895 147.596 135.937 147.626 135.971 147.663C136.006 147.7 136.032 147.744 136.05 147.792C136.068 147.84 136.077 147.891 136.076 147.942C136.075 147.993 136.063 148.044 136.042 148.091C136.022 148.138 135.992 148.18 135.954 148.215C135.917 148.25 135.873 148.278 135.825 148.296C134.864 148.66 133.887 149.016 132.903 149.365C132.865 149.377 132.826 149.382 132.787 149.381H132.771ZM44.7545 148.606C44.706 148.617 44.6557 148.617 44.6073 148.606C43.6463 148.203 42.6853 147.784 41.7553 147.366C41.7087 147.344 41.667 147.313 41.6324 147.276C41.5978 147.238 41.571 147.193 41.5537 147.145C41.5364 147.097 41.5289 147.045 41.5316 146.994C41.5342 146.943 41.547 146.893 41.5693 146.846C41.5901 146.8 41.62 146.759 41.6572 146.724C41.6944 146.69 41.7381 146.663 41.7858 146.645C41.8334 146.628 41.8841 146.621 41.9348 146.623C41.9854 146.626 42.0351 146.638 42.0808 146.66C43.003 147.079 43.9485 147.497 44.9018 147.893C44.9491 147.911 44.9922 147.939 45.0285 147.975C45.0648 148.011 45.0936 148.053 45.1131 148.1C45.1326 148.147 45.1425 148.198 45.1421 148.249C45.1418 148.299 45.1312 148.35 45.111 148.396C45.0789 148.459 45.0299 148.511 44.9696 148.546C44.9092 148.582 44.8401 148.6 44.77 148.598L44.7545 148.606ZM138.576 147.18C138.499 147.181 138.423 147.159 138.36 147.116C138.296 147.073 138.247 147.011 138.22 146.939C138.199 146.893 138.189 146.842 138.188 146.792C138.188 146.741 138.198 146.69 138.217 146.643C138.237 146.596 138.266 146.554 138.302 146.518C138.338 146.482 138.381 146.454 138.429 146.436C139.382 146.04 140.328 145.661 141.265 145.219C141.312 145.198 141.362 145.187 141.414 145.186C141.465 145.185 141.515 145.195 141.563 145.213C141.61 145.232 141.654 145.26 141.691 145.296C141.727 145.331 141.757 145.374 141.777 145.42C141.817 145.514 141.819 145.62 141.783 145.715C141.747 145.81 141.675 145.888 141.583 145.932C140.638 146.35 139.684 146.753 138.723 147.156C138.68 147.168 138.636 147.173 138.592 147.172L138.576 147.18ZM39.1435 146.025C39.0847 146.023 39.0268 146.01 38.973 145.986C38.043 145.521 37.1208 145.033 36.2218 144.537C36.1769 144.513 36.1373 144.48 36.1052 144.44C36.0731 144.4 36.0492 144.355 36.0348 144.306C36.0203 144.257 36.0158 144.205 36.0213 144.155C36.0268 144.104 36.0422 144.055 36.0668 144.01C36.1174 143.921 36.2006 143.855 36.2989 143.826C36.3973 143.797 36.503 143.807 36.5938 143.855C37.485 144.351 38.3995 144.831 39.3218 145.289C39.4122 145.338 39.4802 145.42 39.5119 145.518C39.5436 145.616 39.5366 145.723 39.4923 145.816C39.4586 145.879 39.4083 145.932 39.3469 145.969C39.2854 146.005 39.2152 146.025 39.1435 146.025ZM144.257 144.661C144.184 144.663 144.112 144.644 144.05 144.605C143.988 144.566 143.938 144.51 143.908 144.444C143.886 144.398 143.872 144.348 143.869 144.297C143.866 144.247 143.873 144.196 143.889 144.147C143.906 144.099 143.932 144.055 143.966 144.016C143.999 143.978 144.04 143.947 144.086 143.925C145.016 143.475 145.939 143.018 146.853 142.545C146.945 142.498 147.051 142.489 147.149 142.52C147.247 142.551 147.329 142.62 147.376 142.712C147.423 142.803 147.432 142.91 147.401 143.008C147.37 143.106 147.301 143.188 147.21 143.235C146.287 143.708 145.365 144.173 144.42 144.622C144.369 144.647 144.313 144.657 144.257 144.653V144.661ZM33.7263 143.033C33.6547 143.032 33.5849 143.01 33.5248 142.971C32.6335 142.437 31.75 141.879 30.8898 141.313C30.8048 141.256 30.7458 141.168 30.7254 141.068C30.7051 140.968 30.7252 140.864 30.7813 140.778C30.8087 140.735 30.8445 140.698 30.8864 140.67C30.9284 140.641 30.9758 140.621 31.0257 140.611C31.0755 140.601 31.127 140.601 31.1768 140.611C31.2267 140.621 31.274 140.641 31.316 140.67C32.1685 141.228 33.0443 141.778 33.9278 142.313C34.0144 142.366 34.0768 142.451 34.1014 142.549C34.1261 142.648 34.111 142.752 34.0595 142.84C34.0251 142.898 33.9765 142.946 33.9181 142.98C33.8598 143.014 33.7937 143.032 33.7263 143.033ZM149.759 141.801C149.691 141.801 149.623 141.783 149.564 141.749C149.504 141.715 149.454 141.666 149.418 141.607C149.371 141.517 149.36 141.411 149.389 141.313C149.418 141.214 149.484 141.131 149.573 141.08C150.472 140.577 151.364 140.057 152.239 139.53C152.283 139.504 152.332 139.486 152.382 139.479C152.433 139.471 152.484 139.473 152.534 139.486C152.584 139.498 152.63 139.52 152.672 139.55C152.713 139.58 152.748 139.618 152.774 139.662C152.8 139.706 152.818 139.755 152.826 139.805C152.833 139.856 152.831 139.907 152.819 139.957C152.807 140.007 152.785 140.053 152.754 140.094C152.724 140.136 152.686 140.17 152.642 140.197C151.759 140.714 150.86 141.23 149.945 141.747C149.889 141.78 149.825 141.799 149.759 141.801ZM28.557 139.616C28.4768 139.615 28.3986 139.591 28.3323 139.546C27.4849 138.931 26.6557 138.303 25.8445 137.663C25.7647 137.599 25.7133 137.506 25.7017 137.404C25.6901 137.303 25.7192 137.2 25.7825 137.12C25.849 137.042 25.943 136.991 26.0453 136.98C26.1476 136.968 26.2505 136.996 26.3328 137.058C27.1078 137.694 27.9525 138.314 28.7818 138.918C28.8237 138.948 28.8594 138.985 28.8867 139.028C28.9141 139.071 28.9327 139.12 28.9413 139.17C28.95 139.221 28.9485 139.272 28.9371 139.322C28.9257 139.372 28.9045 139.419 28.8748 139.461C28.8375 139.509 28.7893 139.549 28.7342 139.576C28.679 139.603 28.6184 139.616 28.557 139.616ZM23.7055 135.741C23.6121 135.74 23.5217 135.707 23.4498 135.648C22.7523 135.035 22.0548 134.408 21.3883 133.78L21.148 133.547C21.1119 133.512 21.0833 133.47 21.0637 133.423C21.0441 133.377 21.034 133.327 21.034 133.276C21.034 133.226 21.0441 133.176 21.0637 133.129C21.0833 133.083 21.1119 133.04 21.148 133.005C21.184 132.969 21.2269 132.94 21.2741 132.92C21.3213 132.9 21.372 132.89 21.4231 132.89C21.4743 132.89 21.5249 132.9 21.5722 132.92C21.6194 132.94 21.6622 132.969 21.6983 133.005L21.9308 133.23C22.5973 133.857 23.2793 134.477 23.9768 135.074C24.0372 135.126 24.0803 135.195 24.1002 135.272C24.12 135.349 24.1157 135.43 24.0878 135.505C24.0598 135.579 24.0097 135.643 23.944 135.688C23.8784 135.733 23.8006 135.757 23.721 135.756L23.7055 135.741ZM19.2105 131.478C19.1058 131.478 19.0054 131.436 18.9315 131.362C18.203 130.587 17.49 129.812 16.808 129.083C16.7719 129.048 16.7433 129.006 16.7237 128.959C16.7041 128.913 16.694 128.863 16.694 128.812C16.694 128.762 16.7041 128.712 16.7237 128.665C16.7433 128.618 16.7719 128.576 16.808 128.541C16.844 128.505 16.8869 128.476 16.9341 128.456C16.9813 128.436 17.032 128.426 17.0831 128.426C17.1343 128.426 17.1849 128.436 17.2322 128.456C17.2794 128.476 17.3222 128.505 17.3583 128.541C18.0403 129.316 18.7455 130.091 19.4663 130.796C19.5026 130.832 19.5314 130.875 19.5511 130.922C19.5708 130.97 19.5809 131.02 19.5809 131.071C19.5809 131.122 19.5708 131.173 19.5511 131.22C19.5314 131.268 19.5026 131.31 19.4663 131.346C19.4044 131.431 19.3131 131.489 19.2105 131.509V131.478ZM15.072 126.828C15.0139 126.827 14.9567 126.814 14.9045 126.788C14.8522 126.763 14.8062 126.726 14.7698 126.681C14.1033 125.906 13.46 125.053 12.84 124.24C12.7803 124.157 12.755 124.054 12.7695 123.953C12.7839 123.852 12.837 123.76 12.9175 123.697C12.9997 123.636 13.1031 123.609 13.2048 123.624C13.3066 123.638 13.3984 123.692 13.46 123.775C14.0723 124.55 14.7155 125.394 15.3665 126.193C15.3998 126.231 15.425 126.276 15.4406 126.324C15.4563 126.372 15.4622 126.423 15.4578 126.474C15.4535 126.524 15.4391 126.574 15.4154 126.618C15.3917 126.663 15.3593 126.703 15.32 126.735C15.2616 126.82 15.1727 126.878 15.072 126.898V126.828ZM11.3443 121.876C11.2813 121.876 11.2193 121.861 11.1639 121.831C11.1084 121.801 11.0612 121.758 11.0265 121.705C10.4375 120.845 9.86402 119.962 9.32927 119.086C9.28575 118.999 9.27641 118.899 9.30312 118.806C9.32982 118.712 9.39062 118.632 9.47346 118.582C9.55631 118.531 9.65516 118.513 9.75046 118.532C9.84575 118.551 9.93053 118.605 9.98802 118.683C10.515 119.543 11.0808 120.419 11.662 121.271C11.6912 121.313 11.7117 121.36 11.7225 121.409C11.7332 121.459 11.7339 121.51 11.7245 121.56C11.7151 121.61 11.6958 121.657 11.6678 121.7C11.6398 121.742 11.6035 121.778 11.5613 121.806C11.5084 121.878 11.4312 121.927 11.3443 121.946V121.876ZM8.10477 116.598C8.03523 116.598 7.96708 116.579 7.9072 116.543C7.84733 116.508 7.79785 116.457 7.76377 116.397C7.26002 115.482 6.77952 114.544 6.33002 113.622C6.30779 113.576 6.29498 113.526 6.29231 113.475C6.28965 113.423 6.29718 113.372 6.31449 113.324C6.33179 113.275 6.35851 113.231 6.39311 113.193C6.42771 113.155 6.46948 113.125 6.51602 113.103C6.56122 113.081 6.61043 113.068 6.66075 113.064C6.71108 113.061 6.76152 113.068 6.80914 113.085C6.85675 113.101 6.90058 113.127 6.93808 113.161C6.97557 113.195 7.00597 113.236 7.02752 113.281C7.46927 114.196 7.94977 115.118 8.43802 116.025C8.46378 116.068 8.48043 116.116 8.48695 116.166C8.49347 116.216 8.48973 116.267 8.47595 116.316C8.46217 116.365 8.43865 116.41 8.40681 116.449C8.37498 116.488 8.33549 116.521 8.29077 116.544C8.24446 116.605 8.17894 116.649 8.10477 116.668V116.598ZM5.40002 111.08C5.3222 111.081 5.24583 111.059 5.18086 111.016C5.11589 110.973 5.06533 110.912 5.03577 110.84C4.64052 109.887 4.26077 108.902 3.91977 107.934C3.88815 107.838 3.89514 107.734 3.93924 107.643C3.98334 107.552 4.06108 107.482 4.15594 107.448C4.2508 107.414 4.3553 107.418 4.44723 107.459C4.53917 107.501 4.61129 107.576 4.64827 107.67C4.98927 108.631 5.36127 109.6 5.75652 110.545C5.79304 110.64 5.79168 110.745 5.75272 110.839C5.71376 110.933 5.64019 111.008 5.54727 111.049C5.50095 111.07 5.45075 111.08 5.40002 111.08ZM3.33852 105.237C3.25436 105.238 3.17215 105.211 3.10482 105.161C3.03749 105.11 2.98884 105.039 2.96652 104.958C2.67977 103.958 2.41627 102.943 2.19152 101.935C2.18009 101.885 2.17865 101.834 2.18729 101.783C2.19593 101.733 2.21448 101.685 2.24186 101.641C2.26924 101.598 2.30492 101.561 2.34682 101.531C2.38873 101.502 2.43604 101.481 2.48602 101.47C2.58564 101.449 2.68943 101.469 2.77499 101.524C2.86054 101.579 2.92099 101.665 2.94327 101.765C3.16802 102.757 3.42377 103.756 3.71827 104.741C3.73252 104.79 3.737 104.841 3.73147 104.891C3.72594 104.942 3.7105 104.991 3.68603 105.036C3.66156 105.08 3.62855 105.119 3.58887 105.151C3.54919 105.183 3.50362 105.207 3.45477 105.221C3.42242 105.233 3.38827 105.238 3.35402 105.237H3.33852ZM1.98227 99.1917C1.88939 99.1929 1.79917 99.1607 1.72804 99.1009C1.65692 99.0412 1.60962 98.9579 1.59477 98.8662C1.43202 97.8354 1.30027 96.7969 1.19952 95.7662C1.19027 95.6634 1.22222 95.5612 1.28835 95.482C1.35448 95.4028 1.44937 95.3531 1.55214 95.3438C1.65491 95.3346 1.75715 95.3665 1.83636 95.4327C1.91557 95.4988 1.96527 95.5937 1.97452 95.6964C2.07527 96.7039 2.20702 97.7269 2.36977 98.7422C2.37866 98.7926 2.37747 98.8443 2.36628 98.8942C2.35509 98.9441 2.33412 98.9914 2.30458 99.0332C2.27504 99.075 2.23751 99.1105 2.19416 99.1377C2.15081 99.1649 2.1025 99.1833 2.05202 99.1917H1.98227ZM1.38552 93.0304C1.28467 93.0285 1.18836 92.9882 1.11632 92.9176C1.04428 92.847 1.00195 92.7515 0.998016 92.6507C0.998016 92.1392 0.998016 91.6277 0.998016 91.1007C0.998016 90.5737 0.998016 90.0312 0.998016 89.5042C0.998965 89.453 1.01027 89.4025 1.03126 89.3557C1.05224 89.309 1.08247 89.2669 1.12012 89.2322C1.15778 89.1974 1.20207 89.1707 1.25035 89.1535C1.29862 89.1363 1.34987 89.129 1.40102 89.1322C1.50243 89.1362 1.59822 89.1799 1.66778 89.2538C1.73734 89.3277 1.77513 89.426 1.77302 89.5275C1.77302 90.0467 1.77302 90.5737 1.77302 91.0774C1.77302 91.5812 1.77302 92.0772 1.77302 92.5809C1.77509 92.6325 1.76685 92.6839 1.74879 92.7322C1.73074 92.7805 1.70322 92.8247 1.66785 92.8623C1.63248 92.8998 1.58998 92.9299 1.54283 92.9508C1.49568 92.9717 1.44483 92.983 1.39327 92.9839L1.38552 93.0304ZM1.59477 86.8304C1.54412 86.8266 1.49476 86.8126 1.44962 86.7893C1.40447 86.766 1.36446 86.7339 1.33194 86.6949C1.29942 86.6559 1.27506 86.6107 1.2603 86.5621C1.24554 86.5135 1.24069 86.4625 1.24602 86.4119C1.35452 85.3735 1.49402 84.3272 1.67227 83.312C1.67977 83.2618 1.69725 83.2136 1.72367 83.1703C1.75009 83.127 1.78491 83.0895 1.82609 83.0599C1.86727 83.0302 1.91396 83.0092 1.96341 82.9979C2.01286 82.9866 2.06407 82.9854 2.11402 82.9942C2.1645 83.0026 2.21281 83.021 2.25616 83.0482C2.2995 83.0754 2.33704 83.1109 2.36658 83.1527C2.39612 83.1945 2.41709 83.2417 2.42828 83.2917C2.43947 83.3416 2.44065 83.3933 2.43177 83.4437C2.26127 84.4434 2.12177 85.4664 2.02102 86.4894C2.00766 86.588 1.95833 86.6782 1.8825 86.7426C1.80667 86.807 1.7097 86.841 1.61027 86.8382L1.59477 86.8304ZM2.64102 80.7235H2.54802C2.49861 80.7108 2.45219 80.6885 2.41141 80.6579C2.37063 80.6273 2.33629 80.5889 2.31037 80.545C2.28445 80.5011 2.26746 80.4525 2.26036 80.402C2.25326 80.3515 2.2562 80.3001 2.26902 80.2507C2.50927 79.2355 2.79602 78.2279 3.11377 77.2437C3.14569 77.1461 3.21503 77.0652 3.30658 77.0187C3.39812 76.9722 3.50438 76.9639 3.60202 76.9957C3.65005 77.0107 3.69463 77.035 3.73316 77.0674C3.7717 77.0997 3.80342 77.1394 3.8265 77.1841C3.84957 77.2288 3.86353 77.2776 3.86757 77.3278C3.87161 77.3779 3.86564 77.4284 3.85002 77.4762C3.54002 78.445 3.26102 79.4369 3.02077 80.4367C3.00051 80.5188 2.95394 80.592 2.88818 80.6452C2.82241 80.6984 2.74105 80.7286 2.65652 80.7312L2.64102 80.7235ZM4.53977 74.8257C4.49136 74.8372 4.44092 74.8372 4.39252 74.8257C4.34516 74.8069 4.30198 74.779 4.26544 74.7435C4.22889 74.708 4.19971 74.6656 4.17955 74.6188C4.1594 74.572 4.14867 74.5217 4.14797 74.4708C4.14728 74.4199 4.15664 74.3693 4.17552 74.3219C4.56302 73.3609 4.99702 72.4 5.45427 71.47C5.4725 71.4183 5.50149 71.371 5.53932 71.3314C5.57715 71.2918 5.62296 71.2606 5.67372 71.2399C5.72448 71.2193 5.77905 71.2097 5.83381 71.2117C5.88857 71.2137 5.94229 71.2273 5.99141 71.2515C6.04053 71.2758 6.08395 71.3103 6.11879 71.3526C6.15362 71.3949 6.1791 71.4441 6.19352 71.4969C6.20794 71.5498 6.21098 71.6051 6.20245 71.6592C6.19392 71.7134 6.174 71.7651 6.14402 71.811C5.70227 72.7255 5.27602 73.6632 4.89627 74.6164C4.86422 74.68 4.81562 74.7336 4.7556 74.7718C4.69559 74.81 4.62637 74.8313 4.55527 74.8334L4.53977 74.8257ZM7.28327 69.2999C7.21487 69.3004 7.14773 69.2816 7.08952 69.2457C7.04518 69.2208 7.00629 69.1873 6.97516 69.1471C6.94402 69.1069 6.92128 69.0609 6.90827 69.0117C6.89526 68.9626 6.89225 68.9113 6.89942 68.861C6.90659 68.8106 6.9238 68.7623 6.95002 68.7187C7.47702 67.8274 8.02727 66.9362 8.60077 66.0682C8.66133 65.993 8.74779 65.9431 8.8432 65.9284C8.93861 65.9136 9.03611 65.9349 9.11659 65.9883C9.19707 66.0416 9.25475 66.1231 9.27832 66.2167C9.30189 66.3103 9.28966 66.4094 9.24402 66.4945C8.68602 67.347 8.13577 68.2304 7.61652 69.1062C7.58271 69.1648 7.53416 69.2135 7.47569 69.2475C7.41723 69.2814 7.35089 69.2995 7.28327 69.2999ZM10.701 64.1229C10.6169 64.1247 10.5347 64.0974 10.4685 64.0454C10.3873 63.9851 10.3329 63.8954 10.317 63.7954C10.3011 63.6955 10.3248 63.5933 10.3833 63.5107C11.0033 62.6737 11.6465 61.8444 12.3053 61.0462C12.3369 61.0064 12.3761 60.9733 12.4208 60.9489C12.4654 60.9245 12.5144 60.9093 12.565 60.9043C12.6156 60.8992 12.6667 60.9044 12.7153 60.9194C12.7639 60.9345 12.8089 60.9591 12.8478 60.9919C12.9264 61.057 12.9763 61.1505 12.9864 61.252C12.9966 61.3536 12.9663 61.4551 12.902 61.5345C12.251 62.3095 11.6155 63.1387 11.011 63.9679C10.9722 64.0114 10.9243 64.0457 10.8708 64.0685C10.8172 64.0913 10.7592 64.1019 10.701 64.0997V64.1229ZM14.6303 59.3334C14.5831 59.3344 14.5362 59.326 14.4923 59.3087C14.4484 59.2914 14.4084 59.2656 14.3745 59.2327C14.3382 59.1967 14.3094 59.1538 14.2897 59.1066C14.27 59.0594 14.2599 59.0087 14.2599 58.9576C14.2599 58.9064 14.27 58.8558 14.2897 58.8086C14.3094 58.7613 14.3382 58.7185 14.3745 58.6824C15.072 57.9074 15.8083 57.1325 16.5445 56.4427C16.5799 56.4066 16.6221 56.3779 16.6687 56.3584C16.7152 56.3388 16.7652 56.3287 16.8158 56.3287C16.8663 56.3287 16.9163 56.3388 16.9629 56.3584C17.0095 56.3779 17.0517 56.4066 17.087 56.4427C17.1233 56.4787 17.1522 56.5216 17.1718 56.5688C17.1915 56.616 17.2016 56.6667 17.2016 56.7178C17.2016 56.769 17.1915 56.8196 17.1718 56.8668C17.1522 56.9141 17.1233 56.9569 17.087 56.9929C16.3585 57.6982 15.6378 58.4422 14.9403 59.2017C14.9 59.2418 14.8513 59.2724 14.7976 59.2912C14.7439 59.31 14.6868 59.3165 14.6303 59.3102V59.3334ZM19.0633 55.0012C19.0087 55.0016 18.9548 54.99 18.9052 54.9672C18.8557 54.9445 18.8117 54.9111 18.7765 54.8694C18.7404 54.8341 18.7118 54.7919 18.6922 54.7453C18.6726 54.6987 18.6625 54.6487 18.6625 54.5982C18.6625 54.5477 18.6726 54.4977 18.6922 54.4511C18.7118 54.4045 18.7404 54.3623 18.7765 54.3269C19.5515 53.6372 20.373 52.9707 21.1868 52.3352C21.2696 52.2861 21.3676 52.2689 21.4622 52.287C21.5569 52.305 21.6417 52.357 21.7007 52.4331C21.7597 52.5092 21.7889 52.6043 21.7827 52.7005C21.7766 52.7966 21.7355 52.8872 21.6673 52.9552C20.8923 53.5752 20.063 54.2339 19.288 54.9082C19.2221 54.9542 19.1436 54.9786 19.0633 54.9779V55.0012ZM83.4658 53.7767C83.3953 53.7761 83.3263 53.7564 83.2662 53.7195C83.2061 53.6826 83.1572 53.63 83.1248 53.5674C82.6177 52.6992 82.0145 51.8907 81.3268 51.1572C81.2579 51.0801 81.2225 50.9788 81.2283 50.8757C81.2341 50.7725 81.2807 50.6758 81.3578 50.6069C81.4348 50.5381 81.5361 50.5027 81.6393 50.5085C81.7425 50.5143 81.8392 50.5609 81.908 50.6379C82.6411 51.4169 83.2786 52.2807 83.8068 53.2109C83.8309 53.2556 83.8458 53.3046 83.8506 53.3551C83.8555 53.4056 83.8501 53.4565 83.835 53.5049C83.8198 53.5533 83.7951 53.5982 83.7623 53.6369C83.7295 53.6756 83.6893 53.7073 83.644 53.7302C83.5876 53.753 83.5262 53.7611 83.4658 53.7534V53.7767ZM24 51.1804C23.9368 51.1821 23.8743 51.1672 23.8186 51.1373C23.7629 51.1074 23.7159 51.0635 23.6823 51.0099C23.6531 50.9684 23.6326 50.9215 23.6218 50.872C23.6111 50.8224 23.6104 50.7712 23.6198 50.7213C23.6292 50.6715 23.6485 50.624 23.6765 50.5817C23.7045 50.5395 23.7408 50.5032 23.783 50.4752C24.6355 49.8862 25.519 49.3204 26.4025 48.7857C26.4459 48.7579 26.4945 48.7392 26.5453 48.7308C26.5961 48.7224 26.6482 48.7244 26.6982 48.7368C26.7482 48.7491 26.7952 48.7715 26.8363 48.8025C26.8774 48.8336 26.9118 48.8727 26.9373 48.9174C26.964 48.9611 26.9818 49.0097 26.9896 49.0603C26.9975 49.1109 26.9952 49.1626 26.9829 49.2123C26.9707 49.262 26.9487 49.3088 26.9182 49.35C26.8878 49.3912 26.8495 49.4259 26.8055 49.4522C25.9298 49.9714 25.0618 50.5372 24.217 51.1107C24.154 51.1566 24.0779 51.181 24 51.1804ZM79.3815 49.1499C79.2904 49.1497 79.2023 49.1167 79.1335 49.0569C78.3483 48.407 77.5254 47.804 76.669 47.2512C76.6263 47.2232 76.5895 47.1871 76.5607 47.1449C76.5319 47.1026 76.5117 47.0552 76.5013 47.0052C76.4908 46.9551 76.4904 46.9036 76.4999 46.8534C76.5094 46.8032 76.5287 46.7553 76.5566 46.7126C76.5846 46.6698 76.6208 46.633 76.663 46.6042C76.7052 46.5754 76.7527 46.5553 76.8027 46.5448C76.8527 46.5344 76.9043 46.5339 76.9545 46.5434C77.0047 46.5529 77.0525 46.5722 77.0953 46.6002C77.9755 47.1731 78.8217 47.7967 79.6295 48.4679C79.6895 48.5192 79.7324 48.5876 79.7524 48.6639C79.7725 48.7402 79.7688 48.8208 79.7419 48.8949C79.7149 48.969 79.666 49.0332 79.6016 49.0788C79.5372 49.1243 79.4604 49.1492 79.3815 49.1499ZM29.27 47.9874C29.1984 47.9874 29.1281 47.968 29.0667 47.9311C29.0052 47.8943 28.955 47.8414 28.9213 47.7782C28.8747 47.6876 28.8657 47.5824 28.8962 47.4852C28.9266 47.388 28.9941 47.3068 29.084 47.2589C29.9985 46.7784 30.944 46.3212 31.8973 45.895C31.9434 45.8731 31.9935 45.8608 32.0445 45.8588C32.0955 45.8567 32.1465 45.865 32.1942 45.8831C32.242 45.9012 32.2856 45.9287 32.3224 45.964C32.3593 45.9994 32.3887 46.0418 32.4088 46.0887C32.4487 46.1825 32.4508 46.2881 32.4147 46.3834C32.3786 46.4787 32.307 46.5564 32.215 46.6002C31.2773 47.0187 30.3473 47.4682 29.4483 47.9409C29.3936 47.9708 29.3324 47.9868 29.27 47.9874ZM74.22 45.7555C74.1602 45.7545 74.1016 45.7385 74.0495 45.7089C73.1583 45.2672 72.2128 44.8487 71.2518 44.4767C71.1566 44.4402 71.0797 44.3677 71.0376 44.2748C70.9955 44.182 70.9917 44.0763 71.027 43.9807C71.0451 43.9327 71.0725 43.8887 71.1076 43.8513C71.1428 43.8139 71.1851 43.7839 71.2319 43.763C71.2788 43.7421 71.3293 43.7307 71.3806 43.7295C71.4319 43.7283 71.483 43.7373 71.5308 43.7559C72.515 44.1357 73.4838 44.5309 74.3983 45.0192C74.4895 45.0657 74.5587 45.1463 74.5906 45.2436C74.6226 45.3409 74.6147 45.4469 74.5688 45.5384C74.5339 45.608 74.4792 45.6657 74.4116 45.7043C74.3441 45.7429 74.2666 45.7607 74.189 45.7555H74.22ZM34.9508 45.4454C34.8723 45.4449 34.7957 45.4211 34.7309 45.3769C34.666 45.3328 34.6158 45.2703 34.5865 45.1974C34.568 45.1502 34.5591 45.0997 34.5604 45.0489C34.5617 44.9982 34.5732 44.9482 34.5941 44.902C34.6151 44.8557 34.6451 44.8142 34.6824 44.7797C34.7197 44.7453 34.7635 44.7187 34.8113 44.7014C35.78 44.3294 36.772 43.9884 37.764 43.6784C37.8123 43.6618 37.8635 43.6553 37.9144 43.6593C37.9653 43.6634 38.0148 43.6778 38.0599 43.7018C38.105 43.7258 38.1446 43.7588 38.1764 43.7988C38.2082 43.8388 38.2313 43.8849 38.2445 43.9342C38.26 43.9825 38.2656 44.0335 38.2611 44.084C38.2565 44.1345 38.2419 44.1836 38.2181 44.2284C38.1942 44.2732 38.1617 44.3128 38.1223 44.3448C38.0829 44.3768 38.0375 44.4005 37.9888 44.4147C37.02 44.7247 36.0358 45.0579 35.0825 45.4222C35.0308 45.4423 34.9751 45.4502 34.9198 45.4454H34.9508ZM40.8563 43.5932C40.7535 43.6055 40.65 43.5765 40.5686 43.5126C40.4873 43.4486 40.4346 43.355 40.4223 43.2522C40.4099 43.1494 40.4389 43.046 40.5029 42.9646C40.5668 42.8832 40.6605 42.8305 40.7633 42.8182C41.763 42.5624 42.786 42.3377 43.809 42.1439C43.8589 42.1338 43.9103 42.1335 43.9602 42.1432C44.0102 42.1528 44.0578 42.1723 44.1003 42.2003C44.1427 42.2284 44.1792 42.2646 44.2077 42.3068C44.2362 42.3489 44.2561 42.3963 44.2663 42.4462C44.2845 42.5478 44.2623 42.6525 44.2044 42.738C44.1465 42.8234 44.0574 42.8828 43.9563 42.9034C42.9488 43.0972 41.9413 43.322 40.9493 43.57L40.8563 43.5932ZM68.4463 43.5234H68.3455C67.3845 43.2522 66.3848 43.0042 65.3618 42.795C65.3119 42.7848 65.2645 42.7649 65.2223 42.7364C65.1801 42.7079 65.144 42.6714 65.1159 42.6289C65.0878 42.5865 65.0684 42.5389 65.0587 42.4889C65.0491 42.439 65.0493 42.3876 65.0595 42.3377C65.0819 42.238 65.142 42.1508 65.2272 42.0944C65.3125 42.0381 65.4163 42.0169 65.5168 42.0354C66.5553 42.2524 67.5783 42.5004 68.5548 42.8104C68.6537 42.8394 68.7374 42.9058 68.7881 42.9955C68.8388 43.0853 68.8524 43.1913 68.826 43.2909C68.7917 43.3687 68.7332 43.4334 68.6592 43.4752C68.5852 43.5171 68.4996 43.534 68.4153 43.5234H68.4463ZM46.94 42.4229C46.8891 42.4265 46.838 42.42 46.7897 42.4038C46.7413 42.3876 46.6966 42.3621 46.6581 42.3286C46.5803 42.261 46.5326 42.1653 46.5254 42.0626C46.5182 41.9598 46.5521 41.8584 46.6197 41.7806C46.6873 41.7029 46.783 41.6551 46.8858 41.6479C47.9088 41.5084 48.9473 41.3922 49.9858 41.3069C50.0367 41.3029 50.0878 41.3089 50.1364 41.3246C50.185 41.3403 50.23 41.3654 50.2689 41.3985C50.3077 41.4316 50.3397 41.4721 50.3629 41.5175C50.3861 41.563 50.4002 41.6126 50.4043 41.6634C50.4083 41.7143 50.4023 41.7655 50.3866 41.8141C50.3709 41.8627 50.3458 41.9077 50.3127 41.9465C50.2796 41.9854 50.2392 42.0174 50.1937 42.0406C50.1482 42.0638 50.0987 42.0779 50.0478 42.0819C49.0325 42.1749 48.0018 42.2834 46.9943 42.4229H46.94ZM62.3858 42.2834H62.3315C61.3473 42.1594 60.3165 42.0509 59.278 41.9812C59.2271 41.9782 59.1773 41.9652 59.1314 41.943C59.0855 41.9207 59.0445 41.8896 59.0106 41.8515C58.9768 41.8133 58.9508 41.7688 58.9342 41.7206C58.9176 41.6724 58.9106 41.6214 58.9138 41.5704C58.9217 41.4669 58.9701 41.3707 59.0484 41.3026C59.1267 41.2344 59.2287 41.1998 59.3323 41.2062C60.3863 41.2837 61.4325 41.3844 62.4323 41.5162C62.4832 41.5193 62.5329 41.5323 62.5788 41.5546C62.6246 41.5769 62.6656 41.608 62.6995 41.6461C62.7333 41.6843 62.7593 41.7287 62.7759 41.7769C62.7926 41.8251 62.7996 41.8761 62.7965 41.9269C62.7935 41.9778 62.7804 42.0276 62.7581 42.0735C62.7358 42.1193 62.7047 42.1603 62.6666 42.1941C62.6284 42.228 62.584 42.2539 62.5358 42.2706C62.4877 42.2873 62.4367 42.2943 62.3858 42.2912V42.2834ZM53.0858 41.8882C52.9856 41.8883 52.8893 41.8496 52.8171 41.7802C52.7449 41.7109 52.7023 41.6163 52.6983 41.5162C52.6961 41.4139 52.7336 41.3148 52.803 41.2397C52.8724 41.1645 52.9682 41.1192 53.0703 41.1132C54.101 41.1132 55.155 41.0667 56.1703 41.1132C56.2724 41.1172 56.369 41.1606 56.4398 41.2343C56.5106 41.308 56.5501 41.4063 56.55 41.5084C56.549 41.5593 56.538 41.6095 56.5176 41.6562C56.4972 41.7028 56.4678 41.7449 56.4311 41.7802C56.3944 41.8155 56.3511 41.8432 56.3037 41.8617C56.2563 41.8802 56.2057 41.8892 56.1548 41.8882C55.1395 41.8882 54.0933 41.8882 53.0548 41.8882H53.0858Z" fill="#D1D3D4"/>
</svg>
