<svg width="28" height="28" viewBox="0 0 28 28" fill="none" xmlns="http://www.w3.org/2000/svg">
<path d="M0.714294 0.859436H27.5507V27.6958H0.714294V0.859436ZM25.3524 21.2954C25.1567 20.0709 24.3594 19.0422 21.9944 18.0828C21.1715 17.697 20.2568 17.4287 19.9851 16.8081C19.8833 16.4391 19.8677 16.2378 19.9336 16.0198C20.1014 15.2974 20.9568 15.0805 21.6277 15.2818C22.0638 15.4159 22.4663 15.7514 22.719 16.2881C23.8752 15.5322 23.8752 15.5322 24.6814 15.0302C24.3795 14.5605 24.2297 14.3581 24.0262 14.158C23.3217 13.3697 22.3836 12.9671 20.8573 13.0018L20.0689 13.1013C19.313 13.2858 18.5929 13.6884 18.1568 14.2251C16.8821 15.6687 17.25 18.1846 18.7931 19.2245C20.3194 20.365 22.5513 20.6155 22.8364 21.6901C23.1048 22.9984 21.8636 23.4177 20.6381 23.2667C19.7312 23.0654 19.2292 22.6115 18.6757 21.7728L16.6294 22.948C16.8642 23.4848 17.1326 23.7185 17.5351 24.1881C19.4808 26.1516 24.3449 26.051 25.2182 23.0654C25.2506 22.9648 25.4865 22.2771 25.3009 21.2204L25.3524 21.2954ZM15.3077 13.1941H12.794C12.794 15.3612 12.784 17.5148 12.784 19.6852C12.784 21.0628 12.8544 22.3274 12.6297 22.7166C12.2607 23.487 11.3102 23.3886 10.8786 23.2533C10.4358 23.0341 10.211 22.7322 9.95049 22.2973C9.88004 22.1798 9.82749 22.0781 9.80848 22.0781L7.7678 23.336C8.10884 24.0405 8.60643 24.6466 9.24827 25.0323C10.2043 25.6026 11.4891 25.7871 12.8343 25.4852C13.7098 25.2325 14.4646 24.7125 14.8593 23.9074C15.4296 22.8675 15.3088 21.5928 15.3032 20.166C15.3167 17.8692 15.3032 15.5714 15.3032 13.2567L15.3077 13.1941Z" fill="#F7DF1E"/>
</svg>
