<svg width="539" height="138" viewBox="0 0 539 138" fill="none" xmlns="http://www.w3.org/2000/svg">
<path d="M69.3594 70.6641C69.3594 82.8516 66.7578 92.3672 61.5547 99.2109C56.3516 106.008 49.0859 109.406 39.7578 109.406C31.5078 109.406 24.9219 106.242 20 99.9141L19.0859 108H0.804688V0H21.125V38.7422C25.8125 33.2578 31.9766 30.5156 39.6172 30.5156C48.8984 30.5156 56.1641 33.9375 61.4141 40.7812C66.7109 47.5781 69.3594 57.1641 69.3594 69.5391V70.6641ZM49.0391 69.1875C49.0391 61.5 47.8203 55.8984 45.3828 52.3828C42.9453 48.8203 39.3125 47.0391 34.4844 47.0391C28.0156 47.0391 23.5625 49.6875 21.125 54.9844V85.0078C23.6094 90.3516 28.1094 93.0234 34.625 93.0234C41.1875 93.0234 45.5 89.7891 47.5625 83.3203C48.5469 80.2266 49.0391 75.5156 49.0391 69.1875Z" fill="#FFFFFE"/>
<path d="M124.695 50.9766C121.93 50.6016 119.492 50.4141 117.383 50.4141C109.695 50.4141 104.656 53.0156 102.266 58.2188V108H81.9453V31.9219H101.141L101.703 40.9922C105.781 34.0078 111.43 30.5156 118.648 30.5156C120.898 30.5156 123.008 30.8203 124.977 31.4297L124.695 50.9766Z" fill="#FFFFFE"/>
<path d="M155.984 108H135.594V31.9219H155.984V108ZM134.398 12.2344C134.398 9.1875 135.406 6.67969 137.422 4.71094C139.484 2.74219 142.273 1.75781 145.789 1.75781C149.258 1.75781 152.023 2.74219 154.086 4.71094C156.148 6.67969 157.18 9.1875 157.18 12.2344C157.18 15.3281 156.125 17.8594 154.016 19.8281C151.953 21.7969 149.211 22.7812 145.789 22.7812C142.367 22.7812 139.602 21.7969 137.492 19.8281C135.43 17.8594 134.398 15.3281 134.398 12.2344Z" fill="#FFFFFE"/>
<path d="M197.117 13.2188V31.9219H210.125V46.8281H197.117V84.7969C197.117 87.6094 197.656 89.625 198.734 90.8438C199.812 92.0625 201.875 92.6719 204.922 92.6719C207.172 92.6719 209.164 92.5078 210.898 92.1797V107.578C206.914 108.797 202.812 109.406 198.594 109.406C184.344 109.406 177.078 102.211 176.797 87.8203V46.8281H165.688V31.9219H176.797V13.2188H197.117Z" fill="#FFFFFE"/>
<path d="M216.172 69.2578C216.172 61.7109 217.625 54.9844 220.531 49.0781C223.438 43.1719 227.609 38.6016 233.047 35.3672C238.531 32.1328 244.883 30.5156 252.102 30.5156C262.367 30.5156 270.734 33.6562 277.203 39.9375C283.719 46.2188 287.352 54.75 288.102 65.5312L288.242 70.7344C288.242 82.4062 284.984 91.7812 278.469 98.8594C271.953 105.891 263.211 109.406 252.242 109.406C241.273 109.406 232.508 105.891 225.945 98.8594C219.43 91.8281 216.172 82.2656 216.172 70.1719V69.2578ZM236.492 70.7344C236.492 77.9531 237.852 83.4844 240.57 87.3281C243.289 91.125 247.18 93.0234 252.242 93.0234C257.164 93.0234 261.008 91.1484 263.773 87.3984C266.539 83.6016 267.922 77.5547 267.922 69.2578C267.922 62.1797 266.539 56.6953 263.773 52.8047C261.008 48.9141 257.117 46.9688 252.102 46.9688C247.133 46.9688 243.289 48.9141 240.57 52.8047C237.852 56.6484 236.492 62.625 236.492 70.7344Z" fill="#FFFFFE"/>
<path d="M300.859 98.0156C300.859 94.7812 301.938 92.1562 304.094 90.1406C306.297 88.125 309.039 87.1172 312.32 87.1172C315.648 87.1172 318.391 88.125 320.547 90.1406C322.75 92.1562 323.852 94.7812 323.852 98.0156C323.852 101.203 322.773 103.805 320.617 105.82C318.461 107.789 315.695 108.773 312.32 108.773C308.992 108.773 306.25 107.789 304.094 105.82C301.938 103.805 300.859 101.203 300.859 98.0156Z" fill="#6EA9EE"/>
<path d="M366.039 13.2188V31.9219H379.047V46.8281H366.039V84.7969C366.039 87.6094 366.578 89.625 367.656 90.8438C368.734 92.0625 370.797 92.6719 373.844 92.6719C376.094 92.6719 378.086 92.5078 379.82 92.1797V107.578C375.836 108.797 371.734 109.406 367.516 109.406C353.266 109.406 346 102.211 345.719 87.8203V46.8281H334.609V31.9219H345.719V13.2188H366.039Z" fill="#6EA9EE"/>
<path d="M385.094 69.2578C385.094 61.7109 386.547 54.9844 389.453 49.0781C392.359 43.1719 396.531 38.6016 401.969 35.3672C407.453 32.1328 413.805 30.5156 421.023 30.5156C431.289 30.5156 439.656 33.6562 446.125 39.9375C452.641 46.2188 456.273 54.75 457.023 65.5312L457.164 70.7344C457.164 82.4062 453.906 91.7812 447.391 98.8594C440.875 105.891 432.133 109.406 421.164 109.406C410.195 109.406 401.43 105.891 394.867 98.8594C388.352 91.8281 385.094 82.2656 385.094 70.1719V69.2578ZM405.414 70.7344C405.414 77.9531 406.773 83.4844 409.492 87.3281C412.211 91.125 416.102 93.0234 421.164 93.0234C426.086 93.0234 429.93 91.1484 432.695 87.3984C435.461 83.6016 436.844 77.5547 436.844 69.2578C436.844 62.1797 435.461 56.6953 432.695 52.8047C429.93 48.9141 426.039 46.9688 421.023 46.9688C416.055 46.9688 412.211 48.9141 409.492 52.8047C406.773 56.6484 405.414 62.625 405.414 70.7344Z" fill="#6EA9EE"/>
<path d="M538.164 70.6641C538.164 82.3828 535.492 91.7812 530.148 98.8594C524.852 105.891 517.68 109.406 508.633 109.406C500.945 109.406 494.734 106.734 490 101.391V137.25H469.68V31.9219H488.523L489.227 39.375C494.148 33.4688 500.57 30.5156 508.492 30.5156C517.867 30.5156 525.156 33.9844 530.359 40.9219C535.562 47.8594 538.164 57.4219 538.164 69.6094V70.6641ZM517.844 69.1875C517.844 62.1094 516.578 56.6484 514.047 52.8047C511.562 48.9609 507.93 47.0391 503.148 47.0391C496.773 47.0391 492.391 49.4766 490 54.3516V85.5C492.484 90.5156 496.914 93.0234 503.289 93.0234C512.992 93.0234 517.844 85.0781 517.844 69.1875Z" fill="#6EA9EE"/>
</svg>
