<svg width="213" height="54" viewBox="0 0 213 54" fill="none" xmlns="http://www.w3.org/2000/svg">
<path d="M27.1893 27.7731C27.1893 32.5632 26.1575 36.3031 24.0939 38.9929C22.0303 41.6643 19.1487 43 15.4491 43C12.1771 43 9.56507 41.7564 7.61301 39.2693L7.25049 42.4473H0V0H8.0592V15.2269C9.9183 13.0713 12.363 11.9936 15.3933 11.9936C19.0744 11.9936 21.956 13.3385 24.0382 16.0283C26.1389 18.6997 27.1893 22.4672 27.1893 27.331V27.7731ZM19.1301 27.1928C19.1301 24.1714 18.6468 21.9698 17.68 20.588C16.7133 19.1879 15.2725 18.4878 13.3576 18.4878C10.7921 18.4878 9.02593 19.5287 8.0592 21.6105V33.4107C9.04452 35.5109 10.8293 36.5611 13.4134 36.5611C16.0161 36.5611 17.7265 35.2898 18.5445 32.7474C18.9349 31.5315 19.1301 29.6799 19.1301 27.1928Z" fill="#232946"/>
<path d="M49.136 20.0353C48.0391 19.888 47.0724 19.8143 46.2358 19.8143C43.1869 19.8143 41.1884 20.8368 40.2402 22.8817V42.4473H32.181V12.5463H39.794L40.0171 16.1112C41.6345 13.3661 43.8748 11.9936 46.7378 11.9936C47.6301 11.9936 48.4667 12.1133 49.2476 12.3528L49.136 20.0353Z" fill="#232946"/>
<path d="M61.5455 42.4473H53.4584V12.5463H61.5455V42.4473ZM52.9843 4.80848C52.9843 3.61097 53.3841 2.62532 54.1835 1.85154C55.0015 1.07776 56.1076 0.690874 57.502 0.690874C58.8777 0.690874 59.9746 1.07776 60.7926 1.85154C61.6106 2.62532 62.0196 3.61097 62.0196 4.80848C62.0196 6.02442 61.6013 7.01928 60.7647 7.79306C59.9467 8.56684 58.8591 8.95373 57.502 8.95373C56.1448 8.95373 55.0479 8.56684 54.2113 7.79306C53.3933 7.01928 52.9843 6.02442 52.9843 4.80848Z" fill="#232946"/>
<path d="M77.8591 5.19537V12.5463H83.0181V18.4049H77.8591V33.3278C77.8591 34.4332 78.0729 35.2254 78.5005 35.7044C78.9281 36.1834 79.7461 36.4229 80.9545 36.4229C81.8469 36.4229 82.637 36.3584 83.3249 36.2294V42.2815C81.7446 42.7605 80.1179 43 78.4447 43C72.7931 43 69.9114 40.172 69.7999 34.5161V18.4049H65.3938V12.5463H69.7999V5.19537H77.8591Z" fill="#232946"/>
<path d="M85.4163 27.2204C85.4163 24.2543 85.9927 21.6105 87.1453 19.2892C88.2979 16.9679 89.9525 15.1716 92.1091 13.9004C94.2842 12.6292 96.8033 11.9936 99.6663 11.9936C103.738 11.9936 107.056 13.2279 109.622 15.6967C112.206 18.1654 113.647 21.5184 113.944 25.7558L114 27.8008C114 32.3882 112.708 36.0728 110.124 38.8548C107.54 41.6183 104.072 43 99.7221 43C95.3718 43 91.8953 41.6183 89.2926 38.8548C86.7084 36.0913 85.4163 32.3329 85.4163 27.5797V27.2204ZM93.4755 27.8008C93.4755 30.638 94.0147 32.8119 95.093 34.3226C96.1712 35.8149 97.7143 36.5611 99.7221 36.5611C101.674 36.5611 103.199 35.8241 104.296 34.3503C105.392 32.858 105.941 30.4814 105.941 27.2204C105.941 24.4385 105.392 22.283 104.296 20.7539C103.199 19.2247 101.656 18.4602 99.6663 18.4602C97.6957 18.4602 96.1712 19.2247 95.093 20.7539C94.0147 22.2646 93.4755 24.6135 93.4755 27.8008Z" fill="#232946"/>
<path d="M119 38.5C119 37.2222 119.427 36.1852 120.281 35.3889C121.154 34.5926 122.24 34.1944 123.54 34.1944C124.858 34.1944 125.944 34.5926 126.799 35.3889C127.671 36.1852 128.108 37.2222 128.108 38.5C128.108 39.7593 127.68 40.787 126.826 41.5833C125.972 42.3611 124.877 42.75 123.54 42.75C122.222 42.75 121.135 42.3611 120.281 41.5833C119.427 40.787 119 39.7593 119 38.5Z" fill="#E45858"/>
<path d="M144.819 5V12.3889H149.971V18.2778H144.819V33.2778C144.819 34.3889 145.032 35.1852 145.459 35.6667C145.886 36.1481 146.703 36.3889 147.91 36.3889C148.801 36.3889 149.591 36.3241 150.278 36.1944V42.2778C148.699 42.7593 147.075 43 145.404 43C139.759 43 136.881 40.1574 136.769 34.4722V18.2778H132.369V12.3889H136.769V5H144.819Z" fill="#E45858"/>
<path d="M152.367 27.1389C152.367 24.1574 152.942 21.5 154.093 19.1667C155.245 16.8333 156.897 15.0278 159.051 13.75C161.223 12.4722 163.739 11.8333 166.599 11.8333C170.665 11.8333 173.98 13.0741 176.542 15.5556C179.123 18.037 180.562 21.4074 180.859 25.6667L180.915 27.7222C180.915 32.3333 179.624 36.037 177.043 38.8333C174.462 41.6111 170.999 43 166.655 43C162.31 43 158.837 41.6111 156.238 38.8333C153.657 36.0556 152.367 32.2778 152.367 27.5V27.1389ZM160.416 27.7222C160.416 30.5741 160.954 32.7593 162.031 34.2778C163.108 35.7778 164.649 36.5278 166.655 36.5278C168.604 36.5278 170.127 35.787 171.222 34.3056C172.318 32.8056 172.865 30.4167 172.865 27.1389C172.865 24.3426 172.318 22.1759 171.222 20.6389C170.127 19.1019 168.586 18.3333 166.599 18.3333C164.631 18.3333 163.108 19.1019 162.031 20.6389C160.954 22.1574 160.416 24.5185 160.416 27.7222Z" fill="#E45858"/>
<path d="M213 27.6944C213 32.3241 211.942 36.037 209.825 38.8333C207.727 41.6111 204.886 43 201.302 43C198.257 43 195.797 41.9444 193.921 39.8333V54H185.872V12.3889H193.337L193.615 15.3333C195.565 13 198.109 11.8333 201.247 11.8333C204.96 11.8333 207.847 13.2037 209.908 15.9444C211.969 18.6852 213 22.463 213 27.2778V27.6944ZM204.951 27.1111C204.951 24.3148 204.449 22.1574 203.447 20.6389C202.463 19.1204 201.024 18.3611 199.13 18.3611C196.605 18.3611 194.868 19.3241 193.921 21.25V33.5556C194.906 35.537 196.66 36.5278 199.185 36.5278C203.029 36.5278 204.951 33.3889 204.951 27.1111Z" fill="#E45858"/>
</svg>
