<svg width="31" height="27" viewBox="0 0 31 27" fill="none" xmlns="http://www.w3.org/2000/svg">
<path d="M15.6739 11.0127C15.3302 11.0127 14.9898 11.0804 14.6723 11.2119C14.3547 11.3435 14.0662 11.5363 13.8231 11.7793C13.5801 12.0224 13.3873 12.3109 13.2557 12.6285C13.1242 12.9461 13.0565 13.2864 13.0565 13.6302C13.0565 13.9739 13.1242 14.3143 13.2557 14.6318C13.3873 14.9494 13.5801 15.2379 13.8231 15.481C14.0662 15.7241 14.3547 15.9169 14.6723 16.0484C14.9898 16.1799 15.3302 16.2476 15.6739 16.2476C16.0177 16.2476 16.358 16.1799 16.6756 16.0484C16.9932 15.9169 17.2817 15.7241 17.5248 15.481C17.7678 15.2379 17.9606 14.9494 18.0922 14.6318C18.2237 14.3143 18.2914 13.9739 18.2914 13.6302C18.2914 13.2864 18.2237 12.9461 18.0922 12.6285C17.9606 12.3109 17.7678 12.0224 17.5248 11.7793C17.2817 11.5363 16.9932 11.3435 16.6756 11.2119C16.358 11.0804 16.0177 11.0127 15.6739 11.0127ZM8.34157 18.837L7.76399 18.6901C3.45904 17.6023 0.989624 15.7557 0.989624 13.6253C0.989624 11.4948 3.45904 9.64826 7.76399 8.5604L8.34157 8.41478L8.50433 8.98747C8.94043 10.4898 9.49824 11.9541 10.1722 13.3658L10.2958 13.6265L10.1722 13.8871C9.49712 15.2984 8.93927 16.7628 8.50433 18.2655L8.34157 18.837ZM7.496 9.89789C4.22385 10.8169 2.21576 12.2229 2.21576 13.6253C2.21576 15.0264 4.22385 16.4324 7.496 17.3526C7.89618 16.0799 8.37935 14.8348 8.94241 13.6253C8.37871 12.416 7.89552 11.1709 7.496 9.89789ZM23.0063 18.837L22.8436 18.2631C22.4079 16.7608 21.8497 15.2968 21.1744 13.8859L21.0509 13.6253L21.1744 13.3646C21.8494 11.9532 22.4076 10.4888 22.8436 8.98624L23.0063 8.41355L23.5851 8.55917C27.8889 9.64704 30.3583 11.4936 30.3583 13.6253C30.3583 15.7569 27.8889 17.6023 23.5851 18.6901L23.0063 18.837ZM22.4055 13.6253C22.9929 14.8967 23.4787 16.1461 23.8519 17.3526C27.1253 16.4324 29.1321 15.0264 29.1321 13.6253C29.1321 12.2229 27.124 10.8181 23.8519 9.89789C23.4523 11.1708 22.9691 12.416 22.4055 13.6253ZM7.48744 9.89178L7.32469 9.32031C6.11445 5.05451 6.48156 1.99773 8.33179 0.930669C10.1465 -0.116813 13.0601 1.12034 16.1133 4.25422L16.5293 4.68129L16.1133 5.10836C15.0284 6.23612 14.0372 7.45037 13.1495 8.73906L12.9843 8.97523L12.6967 8.9997C11.1352 9.1228 9.58618 9.37244 8.06502 9.74616L7.48744 9.89178ZM9.80756 1.77869C9.47961 1.77869 9.18959 1.84966 8.94486 1.99039C7.7285 2.69156 7.51313 5.12916 8.35136 8.41845C9.65538 8.12835 10.9769 7.92356 12.3076 7.80538C13.0753 6.7137 13.9142 5.67376 14.8186 4.6923C12.9096 2.83351 11.1022 1.77869 9.80756 1.77869ZM21.5416 26.6955C21.5403 26.6955 21.5403 26.6955 21.5416 26.6955C19.7978 26.6955 17.5584 25.3825 15.2346 22.9963L14.8186 22.5692L15.2346 22.1422C16.3192 21.014 17.31 19.7994 18.1972 18.5103L18.3624 18.2741L18.6487 18.2496C20.2111 18.1272 21.7609 17.8779 23.2829 17.5044L23.8605 17.3588L24.0244 17.9314C25.2322 22.1948 24.8663 25.2528 23.0161 26.3186C22.5667 26.5727 22.0578 26.7028 21.5416 26.6955ZM16.5293 22.5582C18.4383 24.417 20.2457 25.4718 21.5403 25.4718H21.5416C21.8683 25.4718 22.1595 25.4009 22.403 25.2601C23.6194 24.559 23.836 22.1201 22.9965 18.8309C21.6922 19.1214 20.3702 19.3262 19.0391 19.4439C18.2723 20.5364 17.4338 21.5767 16.5293 22.5582ZM23.8605 9.89178L23.2829 9.74616C21.7611 9.37136 20.2112 9.12171 18.6487 8.9997L18.3624 8.97523L18.1972 8.73906C17.3105 7.44996 16.3196 6.23567 15.2346 5.10836L14.8186 4.68129L15.2346 4.25422C18.2865 1.12156 21.1989 -0.115589 23.0161 0.930669C24.8663 1.99773 25.2334 5.05452 24.0244 9.31909L23.8605 9.89178ZM19.0391 7.80538C20.4366 7.93264 21.7643 8.13945 22.9965 8.41845C23.836 5.12916 23.6194 2.69156 22.403 1.99039C21.194 1.29166 18.9216 2.36239 16.5293 4.6923C17.4333 5.6738 18.2717 6.71374 19.0391 7.80538ZM9.80756 26.6955C9.29091 26.703 8.78157 26.573 8.33179 26.3186C6.48156 25.2528 6.11445 22.196 7.32469 17.9314L7.48621 17.3588L8.0638 17.5044C9.47716 17.8605 11.0361 18.1113 12.6955 18.2496L12.983 18.2741L13.147 18.5103C14.0349 19.7992 15.0261 21.0139 16.1108 22.1422L16.5269 22.5692L16.1108 22.9963C13.7882 25.3825 11.5489 26.6955 9.80756 26.6955ZM8.35136 18.8309C7.51191 22.1201 7.7285 24.559 8.94486 25.2601C10.1526 25.9491 12.4238 24.8869 14.8186 22.5582C13.9145 21.576 13.0757 20.5357 12.3076 19.4439C10.9768 19.3263 9.65528 19.1215 8.35136 18.8309ZM15.6739 19.5993C14.6668 19.5993 13.6316 19.5553 12.5951 19.4696L12.3076 19.4452L12.1424 19.209C11.5561 18.3666 11.005 17.5003 10.4904 16.6123C9.97732 15.7236 9.5013 14.814 9.06355 13.8859L8.94118 13.6253L9.06355 13.3646C9.50123 12.4365 9.97725 11.5269 10.4904 10.6382C10.997 9.76206 11.5538 8.88835 12.1424 8.04155L12.3076 7.80538L12.5951 7.7809C14.6444 7.60714 16.7047 7.60714 18.754 7.7809L19.0403 7.80538L19.2043 8.04155C20.378 9.72665 21.4083 11.5073 22.2843 13.3646L22.4079 13.6253L22.2843 13.8859C21.4104 15.7444 20.38 17.5251 19.2043 19.209L19.0403 19.4452L18.754 19.4696C17.7175 19.5553 16.681 19.5993 15.6739 19.5993ZM12.9855 18.2729C14.7966 18.4087 16.5513 18.4087 18.3636 18.2729C19.3754 16.7937 20.2737 15.2401 21.0509 13.6253C20.2751 12.0095 19.3763 10.4557 18.3624 8.97768C16.5727 8.84184 14.7752 8.84184 12.9855 8.97768C11.9711 10.4554 11.0723 12.0092 10.297 13.6253C11.075 15.2399 11.9737 16.7935 12.9855 18.2729Z" fill="#61DAFB"/>
</svg>
