<svg width="13" height="12" viewBox="0 0 13 12" fill="none" xmlns="http://www.w3.org/2000/svg">
<path fill-rule="evenodd" clip-rule="evenodd" d="M6.7047 0.852275C7.00272 0.562751 7.48597 0.562751 7.784 0.852275L12.3631 5.30058C12.5062 5.43958 12.5867 5.62819 12.5867 5.82481C12.5867 6.02142 12.5062 6.21003 12.3631 6.34904L7.784 10.7973C7.48597 11.0868 7.00272 11.0868 6.7047 10.7973C6.40667 10.5078 6.40667 10.0384 6.7047 9.74887L9.98098 6.56619H1.13886C0.717365 6.56619 0.375671 6.23427 0.375671 5.82481C0.375671 5.41534 0.717365 5.08343 1.13886 5.08343H9.98098L6.7047 1.90075C6.40667 1.61122 6.40667 1.14181 6.7047 0.852275Z" fill="#F89C5A"/>
</svg>
